ISO-10303-21;
HEADER;
FILE_DESCRIPTION(('ViewDefinition [CoordinationView_V2.0]','RevitIdentifiers [ContentGUID: f4bb8119-738a-41e0-add5-9c8f9648aa0f, VersionGUID: 05bf8f30-27c2-42d5-8d64-89fc025c4f7d, NumberOfSaves: 38]','CoordinateReference [CoordinateBase: Coordenadas compartidas]'),'2;1');
FILE_NAME('Modelo Graderias _ RV11.ifc','2026-04-14T12:13:08-05:00',(''),(''),'ODA SDAI 25.12','Autodesk - Revit 26.4.0.32 (ESP) - 26.4.0.32','');
FILE_SCHEMA(('IFC2X3'));
ENDSEC;

DATA;
#1=IFCORGANIZATION($,'Autodesk Revit 2026 (ESP)',$,$,$);
#2=IFCAPPLICATION(#1,'2026','Autodesk Revit 2026 (ESP)','Revit');
#3=IFCPERSON($,'','ljzegarra',$,$,$,$,$);
#4=IFCORGANIZATION($,'Organization Name','Organization Description',$,$);
#5=IFCPERSONANDORGANIZATION(#3,#4,$);
#6=IFCOWNERHISTORY(#5,#2,$,.NOCHANGE.,$,$,$,1776186020);
#7=IFCSIUNIT(*,.LENGTHUNIT.,$,.METRE.);
#8=IFCSIUNIT(*,.AREAUNIT.,$,.SQUARE_METRE.);
#9=IFCSIUNIT(*,.VOLUMEUNIT.,$,.CUBIC_METRE.);
#10=IFCCARTESIANPOINT((0.,0.,0.));
#11=IFCAXIS2PLACEMENT3D(#10,$,$);
#12=IFCDIRECTION((0.,1.));
#13=IFCGEOMETRICREPRESENTATIONCONTEXT($,'Model',3,1.0000000000000001E-005,#11,#12);
#14=IFCGEOMETRICREPRESENTATIONSUBCONTEXT('Axis','Model',*,*,*,*,#13,$,.GRAPH_VIEW.,$);
#15=IFCGEOMETRICREPRESENTATIONSUBCONTEXT('Body','Model',*,*,*,*,#13,$,.MODEL_VIEW.,$);
#16=IFCGEOMETRICREPRESENTATIONSUBCONTEXT('Box','Model',*,*,*,*,#13,$,.MODEL_VIEW.,$);
#17=IFCGEOMETRICREPRESENTATIONSUBCONTEXT('FootPrint','Model',*,*,*,*,#13,$,.MODEL_VIEW.,$);
#18=IFCPROJECT('3qku4PSuf1uAtLd8zfjrN$',#6,'Project Number',$,$,'Project Name','Project Status',(#13),#1109);
#19=IFCPOSTALADDRESS($,$,$,$,('Enter address here\X\0D\X\0AAddress Line 2'),$,'','Boston','','MA');
#20=IFCAXIS2PLACEMENT3D(#10,$,$);
#21=IFCLOCALPLACEMENT(#116,#20);
#22=IFCBUILDING('3qku4PSuf1uAtLd8zfjrN_',#6,'Building Name',$,$,#21,$,'Building Name',.ELEMENT.,$,$,#19);
#23=IFCAXIS2PLACEMENT3D(#10,$,$);
#24=IFCLOCALPLACEMENT(#21,#23);
#25=IFCBUILDINGSTOREY('2JF4e6axWHqu3u0C1FZlmi',#6,'NPT 2767',$,$,#24,$,'NPT 2767',.ELEMENT.,0.);
#26=IFCCARTESIANPOINT((0.,0.,2.2599999999999993));
#27=IFCAXIS2PLACEMENT3D(#26,$,$);
#28=IFCLOCALPLACEMENT(#21,#27);
#29=IFCBUILDINGSTOREY('1ZGO8hrFCHqw0v0026FpFv',#6,'NPT 2769.26',$,$,#28,$,'NPT 2769.26',.ELEMENT.,2.2599999999999993);
#30=IFCCARTESIANPOINT((-11.274445936226687,3.9447235138853816,1.1399999999999986));
#31=IFCCARTESIANPOINT((-11.274445936226691,3.9447235138853807,0.78999999999999859));
#32=IFCCARTESIANPOINT((-11.4398680067585,3.1620131341273452,0.78999999999999859));
#33=IFCCARTESIANPOINT((-11.4398680067585,3.1620131341273456,0.4399999999999985));
#34=IFCCARTESIANPOINT((-11.605290077290313,2.3793027543693093,0.4399999999999985));
#35=IFCCARTESIANPOINT((-11.605290077290313,2.3793027543693102,0.089999999999998498));
#36=IFCCARTESIANPOINT((-11.770712147822124,1.5965923746112738,0.089999999999998498));
#37=IFCCARTESIANPOINT((-11.770712147822124,1.5965923746112742,-0.23999999999998822));
#38=IFCCARTESIANPOINT((-11.233090418593772,4.1404011088247259,-0.2399999999999966));
#39=IFCCARTESIANPOINT((-11.233090418593772,4.1404011088247259,0.0099999999999998927));
#40=IFCCARTESIANPOINT((-11.046990589245347,5.0209502860531616,0.0099999999999998927));
#41=IFCCARTESIANPOINT((-11.046990589245347,5.0209502860531607,1.46));
#42=IFCCARTESIANPOINT((-11.109023865694878,4.7274338936434166,1.46));
#43=IFCCARTESIANPOINT((-11.109023865694878,4.7274338936434166,1.1399999999999986));
#44=IFCPOLYLOOP((#30,#31,#32,#33,#34,#35,#36,#37,#38,#39,#40,#41,#42,#43));
#45=IFCFACEOUTERBOUND(#44,.T.);
#46=IFCFACE((#45));
#47=IFCCARTESIANPOINT((15.631223367955348,-1.7416601606455482,1.1399999999999986));
#48=IFCCARTESIANPOINT((15.796645438487159,-0.95894978088751304,1.1399999999999986));
#49=IFCCARTESIANPOINT((15.796645438487159,-0.95894978088751304,1.46));
#50=IFCCARTESIANPOINT((15.858678714936691,-0.66543338847776734,1.46));
#51=IFCCARTESIANPOINT((15.858678714936691,-0.66543338847776679,0.0099999999999998927));
#52=IFCCARTESIANPOINT((15.672578885588266,-1.5459825657062043,0.0099999999999998927));
#53=IFCCARTESIANPOINT((15.672578885588266,-1.5459825657062047,-0.2399999999999966));
#54=IFCCARTESIANPOINT((15.134957156359913,-4.0897912999196553,-0.23999999999998822));
#55=IFCCARTESIANPOINT((15.134957156359913,-4.0897912999196553,0.089999999999998498));
#56=IFCCARTESIANPOINT((15.300379226891724,-3.3070809201616198,0.089999999999998498));
#57=IFCCARTESIANPOINT((15.300379226891724,-3.3070809201616194,0.4399999999999985));
#58=IFCCARTESIANPOINT((15.465801297423537,-2.5243705404035839,0.4399999999999985));
#59=IFCCARTESIANPOINT((15.465801297423537,-2.5243705404035843,0.78999999999999859));
#60=IFCCARTESIANPOINT((15.631223367955348,-1.7416601606455482,0.78999999999999859));
#61=IFCPOLYLOOP((#47,#48,#49,#50,#51,#52,#53,#54,#55,#56,#57,#58,#59,#60));
#62=IFCFACEOUTERBOUND(#61,.T.);
#63=IFCFACE((#62));
#64=IFCPOLYLOOP((#43,#48,#47,#30));
#65=IFCFACEOUTERBOUND(#64,.T.);
#66=IFCFACE((#65));
#67=IFCPOLYLOOP((#40,#51,#50,#41));
#68=IFCFACEOUTERBOUND(#67,.T.);
#69=IFCFACE((#68));
#70=IFCPOLYLOOP((#39,#40,#51,#52));
#71=IFCFACEOUTERBOUND(#70,.T.);
#72=IFCFACE((#71));
#73=IFCPOLYLOOP((#38,#53,#52,#39));
#74=IFCFACEOUTERBOUND(#73,.T.);
#75=IFCFACE((#74));
#76=IFCPOLYLOOP((#37,#38,#53,#54));
#77=IFCFACEOUTERBOUND(#76,.T.);
#78=IFCFACE((#77));
#79=IFCPOLYLOOP((#36,#37,#54,#55));
#80=IFCFACEOUTERBOUND(#79,.T.);
#81=IFCFACE((#80));
#82=IFCPOLYLOOP((#35,#56,#55,#36));
#83=IFCFACEOUTERBOUND(#82,.T.);
#84=IFCFACE((#83));
#85=IFCPOLYLOOP((#34,#35,#56,#57));
#86=IFCFACEOUTERBOUND(#85,.T.);
#87=IFCFACE((#86));
#88=IFCPOLYLOOP((#33,#58,#57,#34));
#89=IFCFACEOUTERBOUND(#88,.T.);
#90=IFCFACE((#89));
#91=IFCPOLYLOOP((#32,#33,#58,#59));
#92=IFCFACEOUTERBOUND(#91,.T.);
#93=IFCFACE((#92));
#94=IFCPOLYLOOP((#31,#60,#59,#32));
#95=IFCFACEOUTERBOUND(#94,.T.);
#96=IFCFACE((#95));
#97=IFCPOLYLOOP((#30,#31,#60,#47));
#98=IFCFACEOUTERBOUND(#97,.T.);
#99=IFCFACE((#98));
#100=IFCPOLYLOOP((#42,#43,#48,#49));
#101=IFCFACEOUTERBOUND(#100,.T.);
#102=IFCFACE((#101));
#103=IFCPOLYLOOP((#41,#50,#49,#42));
#104=IFCFACEOUTERBOUND(#103,.T.);
#105=IFCFACE((#104));
#106=IFCCONNECTEDFACESET((#46,#63,#66,#69,#72,#75,#78,#81,#84,#87,#90,#93,#96,#99,#102,#105));
#107=IFCFACEBASEDSURFACEMODEL((#106));
#108=IFCCOLOURRGB($,0.38039215686274508,0.29411764705882354,0.24313725490196078);
#109=IFCSURFACESTYLERENDERING(#108,0.,$,$,$,$,IFCNORMALISEDRATIOMEASURE(0.5),IFCSPECULAREXPONENT(64.),.NOTDEFINED.);
#110=IFCSURFACESTYLE('Tierra RV2',.BOTH.,(#109));
#111=IFCPRESENTATIONSTYLEASSIGNMENT((#110));
#112=IFCSTYLEDITEM(#107,(#111),$);
#113=IFCSHAPEREPRESENTATION(#15,'Body','SurfaceModel',(#107));
#114=IFCPRODUCTDEFINITIONSHAPE($,$,(#113));
#115=IFCAXIS2PLACEMENT3D(#10,$,$);
#116=IFCLOCALPLACEMENT($,#115);
#117=IFCSITE('3qku4PSuf1uAtLd8zfjrNz',#6,'Relleno 2:Relleno 1:1696682',$,$,#116,#114,$,.ELEMENT.,(42,21,31,401672),(-71,-3,-24,-345703),0.,$,$);
#118=IFCAXIS2PLACEMENT3D(#10,$,$);
#119=IFCLOCALPLACEMENT(#24,#118);
#120=IFCCARTESIANPOINT((-16.311959943527384,-0.49999999999995998));
#121=IFCCARTESIANPOINT((16.303240343594027,-0.49999999999995887));
#122=IFCCARTESIANPOINT((16.320679543460745,0.49999999999987932));
#123=IFCCARTESIANPOINT((-16.311959943527377,0.50000000000003897));
#124=IFCPOLYLINE((#120,#121,#122,#123,#120));
#125=IFCARBITRARYCLOSEDPROFILEDEF(.AREA.,$,#124);
#126=IFCCARTESIANPOINT((0.89777124674111508,7.4742668611927998,1.76));
#127=IFCDIRECTION((0.,0.,-1.));
#128=IFCDIRECTION((0.97838797469754568,-0.2067775881647595,0.));
#129=IFCAXIS2PLACEMENT3D(#126,#127,#128);
#130=IFCDIRECTION((0.,0.,1.));
#131=IFCEXTRUDEDAREASOLID(#125,#129,#130,0.49999999999999989);
#132=IFCCOLOURRGB($,0.75294117647058822,0.75294117647058822,0.75294117647058822);
#133=IFCSURFACESTYLERENDERING(#132,0.,$,$,$,$,IFCNORMALISEDRATIOMEASURE(0.5),IFCSPECULAREXPONENT(64.),.NOTDEFINED.);
#134=IFCSURFACESTYLE('Concrete, Cast-in-Place gray',.BOTH.,(#133));
#135=IFCPRESENTATIONSTYLEASSIGNMENT((#134));
#136=IFCSTYLEDITEM(#131,(#135),$);
#137=IFCSHAPEREPRESENTATION(#15,'Body','SweptSolid',(#131));
#138=IFCSIUNIT(*,.PLANEANGLEUNIT.,$,.RADIAN.);
#139=IFCDIMENSIONALEXPONENTS(0,0,0,0,0,0,0);
#140=IFCMEASUREWITHUNIT(IFCPLANEANGLEMEASURE(0.017453292519943278),#138);
#141=IFCCONVERSIONBASEDUNIT(#139,.PLANEANGLEUNIT.,'DEGREE',#140);
#142=IFCPRODUCTDEFINITIONSHAPE($,$,(#137));
#143=IFCSLAB('2AXFqZkw5BDxOwjUulKNhw',#6,'Suelo:Vereda de CA_00:1664298',$,$,#119,#142,'1664298',.FLOOR.);
#144=IFCSLABTYPE('3c$eTJGzb6LBFC9gxiPdn8',#6,'Suelo:Vereda de CA_00',$,$,(#172),$,'1674141',$,.FLOOR.);
#145=IFCMATERIAL('Concrete, Cast-in-Place gray');
#146=IFCPRESENTATIONSTYLEASSIGNMENT((#134));
#147=IFCSTYLEDITEM($,(#146),$);
#148=IFCSTYLEDREPRESENTATION(#13,'Style','Material',(#147));
#149=IFCMATERIALDEFINITIONREPRESENTATION($,$,(#148),#145);
#150=IFCMATERIALLAYER(#145,0.49999999999999994,$);
#151=IFCMATERIALLAYERSET((#150),'Suelo:Vereda de CA_00');
#152=IFCMATERIALLAYERSETUSAGE(#151,.AXIS3.,.POSITIVE.,0.);
#153=IFCPROPERTYSINGLEVALUE('Reference',$,IFCIDENTIFIER('Vereda de CA_00'),$);
#154=IFCPROPERTYSET('3TMNaKCufYriuoGCNqVbgu',#6,'Pset_QuantityTakeOff',$,(#153));
#155=IFCPROPERTYSINGLEVALUE('Reference',$,IFCLABEL('Vereda de CA_00'),$);
#156=IFCPROPERTYSET('0EqfSJxDYbQB_KdKtrZq1G',#6,'Pset_ReinforcementBarPitchOfSlab',$,(#155));
#157=IFCPROPERTYSINGLEVALUE('IsExternal',$,IFCBOOLEAN(.F.),$);
#158=IFCPROPERTYSINGLEVALUE('LoadBearing',$,IFCBOOLEAN(.T.),$);
#159=IFCPROPERTYSINGLEVALUE('PitchAngle',$,IFCPLANEANGLEMEASURE(0.),$);
#160=IFCPROPERTYSET('2_NBz1M54Swwa1fMRZux44',#6,'Pset_SlabCommon',$,(#153,#157,#158,#159));
#161=IFCRELDEFINESBYPROPERTIES('2x0KU7zS9KjFKI$B$xXGeB',#6,$,$,(#143),#154);
#162=IFCRELDEFINESBYPROPERTIES('1Qrr_hEoeIGLVyVlw6edzU',#6,$,$,(#143),#156);
#163=IFCRELDEFINESBYPROPERTIES('1KuzygvBo1Jl1csc7$9msY',#6,$,$,(#143),#160);
#164=IFCSIUNIT(*,.MASSUNIT.,.KILO.,.GRAM.);
#165=IFCDERIVEDUNITELEMENT(#164,1);
#166=IFCSIUNIT(*,.THERMODYNAMICTEMPERATUREUNIT.,$,.KELVIN.);
#167=IFCDERIVEDUNITELEMENT(#166,-1);
#168=IFCSIUNIT(*,.TIMEUNIT.,$,.SECOND.);
#169=IFCDERIVEDUNITELEMENT(#168,-3);
#170=IFCDERIVEDUNIT((#165,#167,#169),.THERMALTRANSMITTANCEUNIT.,$);
#171=IFCPROPERTYSINGLEVALUE('ThermalTransmittance',$,IFCTHERMALTRANSMITTANCEMEASURE(2.0920000000000001),$);
#172=IFCPROPERTYSET('26WpF$1rIkL4tdrrGENhQ4',#6,'Pset_SlabCommon',$,(#171));
#173=IFCAXIS2PLACEMENT3D(#10,$,$);
#174=IFCLOCALPLACEMENT(#24,#173);
#175=IFCCARTESIANPOINT((16.762296775220946,3.6101220609494984,-1.2148999999999999));
#176=IFCCARTESIANPOINT((13.923339090442349,-9.8226782928749063,-1.2148999999999999));
#177=IFCCARTESIANPOINT((7.7523390172001623,-8.6006778824134784,-1.2148999999999999));
#178=IFCCARTESIANPOINT((-3.2716613459590143,-0.85467772448501067,-1.2148999999999999));
#179=IFCCARTESIANPOINT((-11.070660885143479,1.0523222261146203,-1.2148999999999999));
#180=IFCCARTESIANPOINT((-16.566661461925825,3.0483221221641612,-1.2148999999999999));
#181=IFCCARTESIANPOINT((-15.065249103861415,10.336720654022256,-1.2148999999999999));
#182=IFCPOLYLOOP((#175,#176,#177,#178,#179,#180,#181));
#183=IFCFACEOUTERBOUND(#182,.T.);
#184=IFCFACE((#183));
#185=IFCCARTESIANPOINT((16.762296775220943,3.6101220609494984,1.3600000000000017));
#186=IFCCARTESIANPOINT((16.055117423697567,0.26403518748439614,1.3599999999999799));
#187=IFCCARTESIANPOINT((16.055117423697567,0.26403518748439342,-0.));
#188=IFCCARTESIANPOINT((16.055117423697567,0.26403518748439236,-0.24000000000000257));
#189=IFCCARTESIANPOINT((14.409291233465899,-7.5233491574857148,-0.23999999999997684));
#190=IFCCARTESIANPOINT((14.409291233465899,-7.5233491574857148,-0.));
#191=IFCCARTESIANPOINT((14.4092912334659,-7.5233491574857085,0.86757078332892801));
#192=IFCCARTESIANPOINT((13.923339090442349,-9.8226782928749081,-0.16490000000000393));
#193=IFCPOLYLOOP((#176,#175,#185,#186,#187,#188,#189,#190,#191,#192));
#194=IFCFACEOUTERBOUND(#193,.T.);
#195=IFCFACE((#194));
#196=IFCCARTESIANPOINT((7.7523390172001623,-8.6006778824134784,0.069950781250000135));
#197=IFCPOLYLOOP((#177,#176,#192,#196));
#198=IFCFACEOUTERBOUND(#197,.T.);
#199=IFCFACE((#198));
#200=IFCCARTESIANPOINT((2.6959061528446702,-5.0477816128574684,0.074046605257255801));
#201=IFCCARTESIANPOINT((2.6959061528446724,-5.0477816128574693,-0.));
#202=IFCCARTESIANPOINT((2.6959061528446786,-5.0477816128574755,-0.23999999999997684));
#203=IFCCARTESIANPOINT((-3.271661345959012,-0.85467772448501222,-0.23999999999998606));
#204=IFCPOLYLOOP((#178,#177,#196,#200,#201,#202,#203));
#205=IFCFACEOUTERBOUND(#204,.T.);
#206=IFCFACE((#205));
#207=IFCCARTESIANPOINT((-11.070660885143472,1.0523222261146157,-0.239999999999987));
#208=IFCPOLYLOOP((#179,#178,#203,#207));
#209=IFCFACEOUTERBOUND(#208,.T.);
#210=IFCFACE((#209));
#211=IFCCARTESIANPOINT((-11.827639227288202,1.3272364425751291,-0.23999999999998739));
#212=IFCCARTESIANPOINT((-11.827639227288202,1.3272364425751291,1.3142915660732928));
#213=IFCCARTESIANPOINT((-16.566661461925822,3.0483221221641612,1.7418859374999998));
#214=IFCPOLYLOOP((#180,#179,#207,#211,#212,#213));
#215=IFCFACEOUTERBOUND(#214,.T.);
#216=IFCFACE((#215));
#217=IFCCARTESIANPOINT((-15.065249103861404,10.336720654022255,1.6960468749999997));
#218=IFCPOLYLOOP((#181,#180,#213,#217));
#219=IFCFACEOUTERBOUND(#218,.T.);
#220=IFCFACE((#219));
#221=IFCCARTESIANPOINT((-1.9691592771024164,7.568925118101677,1.6269906249999997));
#222=IFCCARTESIANPOINT((0.031862407888846887,7.1460188185677094,1.6551892437206319));
#223=IFCCARTESIANPOINT((0.031862407888846887,7.1460188185677094,1.3600000000000017));
#224=IFCPOLYLOOP((#175,#181,#217,#221,#222,#223,#185));
#225=IFCFACEOUTERBOUND(#224,.T.);
#226=IFCFACE((#225));
#227=IFCCARTESIANPOINT((-14.696661651134798,9.0283222259239277,1.7028929687499998));
#228=IFCPOLYLOOP((#217,#213,#227));
#229=IFCFACEOUTERBOUND(#228,.T.);
#230=IFCFACE((#229));
#231=IFCCARTESIANPOINT((4.5572130267629793,-5.4411598597050634,0.071309617076783516));
#232=IFCPOLYLOOP((#200,#196,#231));
#233=IFCFACEOUTERBOUND(#232,.T.);
#234=IFCFACE((#233));
#235=IFCCARTESIANPOINT((-11.063760203527046,4.94160324898239,1.7033425799204824));
#236=IFCPOLYLOOP((#213,#212,#235));
#237=IFCFACEOUTERBOUND(#236,.T.);
#238=IFCFACE((#237));
#239=IFCCARTESIANPOINT((-8.870661449718785,8.5137222411827143,1.60109453125));
#240=IFCCARTESIANPOINT((-9.6442020153676928,5.6954626257949457,1.6852136515308895));
#241=IFCCARTESIANPOINT((-3.0584089953019311,4.3035869772186146,1.7253556173301214));
#242=IFCPOLYLOOP((#239,#240,#241));
#243=IFCFACEOUTERBOUND(#242,.T.);
#244=IFCFACE((#243));
#245=IFCCARTESIANPOINT((-10.85055188048886,5.9504188620158063,1.6973100497510294));
#246=IFCCARTESIANPOINT((-10.323468525934034,5.8390223325865263,1.6950387354512828));
#247=IFCPOLYLOOP((#227,#213,#235,#245,#246));
#248=IFCFACEOUTERBOUND(#247,.T.);
#249=IFCFACE((#248));
#250=IFCPOLYLOOP((#217,#227,#239));
#251=IFCFACEOUTERBOUND(#250,.T.);
#252=IFCFACE((#251));
#253=IFCPOLYLOOP((#239,#227,#246,#240));
#254=IFCFACEOUTERBOUND(#253,.T.);
#255=IFCFACE((#254));
#256=IFCPOLYLOOP((#217,#239,#221));
#257=IFCFACEOUTERBOUND(#256,.T.);
#258=IFCFACE((#257));
#259=IFCCARTESIANPOINT((-0.64025609617212798,3.9658257048874757,1.7628181242458301));
#260=IFCCARTESIANPOINT((-2.0586612582209796,7.1363220138267556,1.6269906249999999));
#261=IFCCARTESIANPOINT((-2.7102100039298165,4.2299967967387513,1.726786483026522));
#262=IFCCARTESIANPOINT((-0.8529040639084442,3.8374641280084258,1.764897465638694));
#263=IFCCARTESIANPOINT((-0.67220660493563134,3.8146488107320953,1.7680337316154291));
#264=IFCPOLYLOOP((#259,#260,#261,#262,#263));
#265=IFCFACEOUTERBOUND(#264,.T.);
#266=IFCFACE((#265));
#267=IFCCARTESIANPOINT((-0.62452270081895989,4.040269772793085,1.76));
#268=IFCCARTESIANPOINT((-0.039309416178746136,6.8092625123207524,1.6551781411826563));
#269=IFCPOLYLOOP((#260,#259,#267,#268));
#270=IFCFACEOUTERBOUND(#269,.T.);
#271=IFCFACE((#270));
#272=IFCCARTESIANPOINT((-0.028065594535879479,6.8624637319629294,1.6551813412174137));
#273=IFCPOLYLOOP((#222,#221,#272));
#274=IFCFACEOUTERBOUND(#273,.T.);
#275=IFCFACE((#274));
#276=IFCPOLYLOOP((#221,#239,#260));
#277=IFCFACEOUTERBOUND(#276,.T.);
#278=IFCFACE((#277));
#279=IFCPOLYLOOP((#260,#239,#241,#261));
#280=IFCFACEOUTERBOUND(#279,.T.);
#281=IFCFACE((#280));
#282=IFCCARTESIANPOINT((-0.67531694363454553,3.7999319451024465,1.7660785540867936));
#283=IFCPOLYLOOP((#263,#262,#282));
#284=IFCFACEOUTERBOUND(#283,.T.);
#285=IFCFACE((#284));
#286=IFCCARTESIANPOINT((10.812338284778287,-9.1646777588172892,-0.15894687500000007));
#287=IFCCARTESIANPOINT((10.174293802970881,-6.6283028392474082,-0.022119870334006659));
#288=IFCCARTESIANPOINT((9.8824707694380294,-6.5666274460441194,-0.));
#289=IFCCARTESIANPOINT((8.5098810316215232,-6.2765372130635653,0.1040408176651348));
#290=IFCPOLYLOOP((#196,#286,#287,#288,#289));
#291=IFCFACEOUTERBOUND(#290,.T.);
#292=IFCFACE((#291));
#293=IFCPOLYLOOP((#196,#192,#286));
#294=IFCFACEOUTERBOUND(#293,.T.);
#295=IFCFACE((#294));
#296=IFCCARTESIANPOINT((11.524991127439359,-6.9137662160642686,-0.098590354564049659));
#297=IFCPOLYLOOP((#287,#286,#296));
#298=IFCFACEOUTERBOUND(#297,.T.);
#299=IFCFACE((#298));
#300=IFCCARTESIANPOINT((8.2200959189322038,-6.2152925246193211,0.072567901907754459));
#301=IFCPOLYLOOP((#196,#289,#300));
#302=IFCFACEOUTERBOUND(#301,.T.);
#303=IFCFACE((#302));
#304=IFCCARTESIANPOINT((5.7320221197912131,-5.6894501055919218,0.052047983822338065));
#305=IFCPOLYLOOP((#196,#300,#304));
#306=IFCFACEOUTERBOUND(#305,.T.);
#307=IFCFACE((#306));
#308=IFCCARTESIANPOINT((14.272725265173783,-7.4944865975615036,-0.));
#309=IFCCARTESIANPOINT((14.259337966955561,-7.4916572565340234,-0.085046288962694921));
#310=IFCPOLYLOOP((#192,#191,#308,#309));
#311=IFCFACEOUTERBOUND(#310,.T.);
#312=IFCFACE((#311));
#313=IFCCARTESIANPOINT((13.224668638044058,-7.2729848751134565,-0.10183571298861933));
#314=IFCPOLYLOOP((#192,#309,#313));
#315=IFCFACEOUTERBOUND(#314,.T.);
#316=IFCFACE((#315));
#317=IFCPOLYLOOP((#286,#192,#313,#296));
#318=IFCFACEOUTERBOUND(#317,.T.);
#319=IFCFACE((#318));
#320=IFCPOLYLOOP((#231,#196,#304));
#321=IFCFACEOUTERBOUND(#320,.T.);
#322=IFCFACE((#321));
#323=IFCPOLYLOOP((#221,#260,#268,#272));
#324=IFCFACEOUTERBOUND(#323,.T.);
#325=IFCFACE((#324));
#326=IFCCARTESIANPOINT((-0.67531694363454298,3.7999319451024456,1.76));
#327=IFCCARTESIANPOINT((-0.67531694363454309,3.799931945102446,1.3599999999999799));
#328=IFCPOLYLOOP((#223,#222,#272,#268,#267,#259,#263,#282,#326,#327));
#329=IFCFACEOUTERBOUND(#328,.T.);
#330=IFCFACE((#329));
#331=IFCPOLYLOOP((#185,#223,#327,#186));
#332=IFCFACEOUTERBOUND(#331,.T.);
#333=IFCFACE((#332));
#334=IFCCARTESIANPOINT((-10.850551880488865,5.9504188620157841,-0.24000000000000282));
#335=IFCCARTESIANPOINT((-10.850551880488865,5.950418862015785,-0.));
#336=IFCPOLYLOOP((#334,#335,#245,#235,#212,#211));
#337=IFCFACEOUTERBOUND(#336,.T.);
#338=IFCFACE((#337));
#339=IFCPOLYLOOP((#335,#187,#186,#327,#326,#282,#262,#261,#241,#240,#246,#245));
#340=IFCFACEOUTERBOUND(#339,.T.);
#341=IFCFACE((#340));
#342=IFCPOLYLOOP((#190,#308,#191));
#343=IFCFACEOUTERBOUND(#342,.T.);
#344=IFCFACE((#343));
#345=IFCPOLYLOOP((#201,#288,#287,#296,#313,#309,#308,#190,#189,#202));
#346=IFCFACEOUTERBOUND(#345,.T.);
#347=IFCFACE((#346));
#348=IFCPOLYLOOP((#188,#334,#211,#207,#203,#202,#189));
#349=IFCFACEOUTERBOUND(#348,.T.);
#350=IFCFACE((#349));
#351=IFCPOLYLOOP((#335,#334,#188,#187));
#352=IFCFACEOUTERBOUND(#351,.T.);
#353=IFCFACE((#352));
#354=IFCPOLYLOOP((#288,#201,#200,#231,#304,#300,#289));
#355=IFCFACEOUTERBOUND(#354,.T.);
#356=IFCFACE((#355));
#357=IFCCLOSEDSHELL((#184,#195,#199,#206,#210,#216,#220,#226,#230,#234,#238,#244,#249,#252,#255,#258,#266,#271,#275,#278,#281,#285,#292,#295,#299,#303,#307,#312,#316,#319,#322,#325,#330,#333,#338,#341,#344,#347,#350,#353,#356));
#358=IFCFACETEDBREP(#357);
#359=IFCCOLOURRGB($,0.,0.72549019607843135,0.36078431372549019);
#360=IFCSURFACESTYLERENDERING(#359,0.,$,$,$,$,IFCNORMALISEDRATIOMEASURE(0.5),IFCSPECULAREXPONENT(64.),.NOTDEFINED.);
#361=IFCSURFACESTYLE('Grass',.BOTH.,(#360));
#362=IFCPRESENTATIONSTYLEASSIGNMENT((#361));
#363=IFCSTYLEDITEM(#358,(#362),$);
#364=IFCSHAPEREPRESENTATION(#15,'Body','Brep',(#358));
#365=IFCPRODUCTDEFINITIONSHAPE($,$,(#364));
#366=IFCBUILDINGELEMENTPROXY('2P32JwsKn9EeNSuLHK8ZLa',#6,'S\X\F3lido topogr\X\E1fico:Grassland - 1200mm:1671104',$,$,#174,#365,'1671104',$);
#367=IFCAXIS2PLACEMENT3D(#10,$,$);
#369=IFCCARTESIANPOINT((0.,0.));
#370=IFCDIRECTION((1.,0.));
#371=IFCAXIS2PLACEMENT2D(#369,#370);
#372=IFCRECTANGLEPROFILEDEF(.AREA.,'Vacio_Plataforma',#371,17.099999999999724,4.9702044788903503);
#373=IFCCARTESIANPOINT((7.8832584257893084,2.9468763524798649,1.3599999999999859));
#374=IFCDIRECTION((-0.97838797469754679,0.20677758816475364,0.));
#375=IFCAXIS2PLACEMENT3D(#373,#130,#374);
#376=IFCEXTRUDEDAREASOLID(#372,#375,#130,0.80000000000000115);
#377=IFCSHAPEREPRESENTATION(#15,'Body','SweptSolid',(#376));
#378=IFCPRODUCTDEFINITIONSHAPE($,$,(#377));
#379=IFCAXIS2PLACEMENT3D(#10,$,$);
#380=IFCLOCALPLACEMENT(#174,#379);
#381=IFCOPENINGELEMENT('2dpMH_SwGPq4VnRj3m0QGV',#6,'S\X\F3lido topogr\X\E1fico:Grassland - 1200mm:1671104',$,'Opening',#380,#378,'1673788');
#382=IFCRELVOIDSELEMENT('2D0DEz6Sjt65LIgKEekeD1',#6,$,$,#366,#381);
#383=IFCAXIS2PLACEMENT3D(#10,$,$);
#385=IFCCARTESIANPOINT((-1.7763568394002505E-015,-0.33666666666667494));
#386=IFCAXIS2PLACEMENT2D(#385,#12);
#387=IFCRECTANGLEPROFILEDEF(.AREA.,'Void',#386,2.4999999999999831,7.9594031676211729);
#388=IFCCARTESIANPOINT((-11.673464975604643,2.0567266895307239,0.67333333333332668));
#389=IFCDIRECTION((0.97838797469754801,-0.20677758816474817,0.));
#390=IFCDIRECTION((-0.20677758816474817,-0.97838797469754801,0.));
#391=IFCAXIS2PLACEMENT3D(#388,#389,#390);
#392=IFCEXTRUDEDAREASOLID(#387,#391,#130,27.500000000003894);
#393=IFCSHAPEREPRESENTATION(#15,'Body','SweptSolid',(#392));
#394=IFCPRODUCTDEFINITIONSHAPE($,$,(#393));
#395=IFCAXIS2PLACEMENT3D(#10,$,$);
#396=IFCLOCALPLACEMENT(#174,#395);
#397=IFCOPENINGELEMENT('0CUdP9VGa7qoUZf4poxq5j',#6,'S\X\F3lido topogr\X\E1fico:Grassland - 1200mm:1671104',$,'Opening',#396,#394,'1672782');
#398=IFCRELVOIDSELEMENT('1be690rxQn5DY2RElgpbXQ',#6,$,$,#366,#397);
#399=IFCBUILDINGELEMENTPROXYTYPE('38IygQ2WP1$fMSs88lNWbf',#6,'S\X\F3lido topogr\X\E1fico:Grassland - 1200mm',$,$,$,$,'1570127',$,.NOTDEFINED.);
#400=IFCMATERIAL('Grass');
#401=IFCPRESENTATIONSTYLEASSIGNMENT((#361));
#402=IFCSTYLEDITEM($,(#401),$);
#403=IFCSTYLEDREPRESENTATION(#13,'Style','Material',(#402));
#404=IFCMATERIALDEFINITIONREPRESENTATION($,$,(#403),#400);
#405=IFCMATERIAL('Earth');
#406=IFCCOLOURRGB($,0.38039215686274508,0.29411764705882354,0.24313725490196078);
#407=IFCSURFACESTYLERENDERING(#406,0.,$,$,$,$,IFCNORMALISEDRATIOMEASURE(0.5),IFCSPECULAREXPONENT(128.),.NOTDEFINED.);
#408=IFCSURFACESTYLE('Earth',.BOTH.,(#407));
#409=IFCPRESENTATIONSTYLEASSIGNMENT((#408));
#410=IFCSTYLEDITEM($,(#409),$);
#411=IFCSTYLEDREPRESENTATION(#13,'Style','Material',(#410));
#412=IFCMATERIALDEFINITIONREPRESENTATION($,$,(#411),#405);
#413=IFCMATERIALLAYER(#400,0.050000000000000003,$);
#414=IFCMATERIALLAYER(#405,0.99999999999999989,$);
#415=IFCMATERIALLAYERSET((#413,#414),'S\X\F3lido topogr\X\E1fico:Grassland - 1200mm');
#416=IFCMATERIALLIST((#400,#405));
#417=IFCPROPERTYSINGLEVALUE('Reference',$,IFCIDENTIFIER('Grassland - 1200mm'),$);
#418=IFCPROPERTYSET('20c8GizyM5hBiH6fLWPH_W',#6,'Pset_BuildingElementProxyCommon',$,(#417));
#419=IFCPROPERTYSET('08J4dkQcig_4eFYmebrZf$',#6,'Pset_QuantityTakeOff',$,(#417));
#420=IFCPROPERTYSINGLEVALUE('Reference',$,IFCIDENTIFIER('Vacio_Plataforma'),$);
#421=IFCPROPERTYSET('0XHPg_a77G9vJRA_KPSgsb',#6,'Pset_OpeningElementCommon',$,(#420));
#422=IFCPROPERTYSET('2DclwCvUU8_rprwYsdLBYZ',#6,'Pset_QuantityTakeOff',$,(#420));
#423=IFCPROPERTYSINGLEVALUE('Reference',$,IFCIDENTIFIER('Void'),$);
#424=IFCPROPERTYSET('2KDu$LPMhGDlt76$LozEcU',#6,'Pset_OpeningElementCommon',$,(#423));
#425=IFCPROPERTYSET('0ZJp4K7gEjH_9sbh4vg5uj',#6,'Pset_QuantityTakeOff',$,(#423));
#426=IFCRELDEFINESBYPROPERTIES('281DHaW405uU4qqQynGfhW',#6,$,$,(#366),#418);
#427=IFCRELDEFINESBYPROPERTIES('2$nwkiU1zWsMxs0ovZoE7S',#6,$,$,(#366),#419);
#428=IFCRELDEFINESBYPROPERTIES('1lHO4sS8owZwypDwWyqdgJ',#6,$,$,(#381),#421);
#429=IFCRELDEFINESBYPROPERTIES('2nGAhASwDsvBy1LNS2HKWA',#6,$,$,(#381),#422);
#430=IFCRELDEFINESBYPROPERTIES('0BZt5lwqbJiZw65xwaS6Qj',#6,$,$,(#397),#424);
#431=IFCRELDEFINESBYPROPERTIES('01Cf5wUxzfUEqYOijioSGW',#6,$,$,(#397),#425);
#432=IFCAXIS2PLACEMENT3D(#10,$,$);
#433=IFCLOCALPLACEMENT(#24,#432);
#434=IFCCARTESIANPOINT((8.8817841970012523E-016,-2.0872192862952943E-014));
#435=IFCAXIS2PLACEMENT2D(#434,#370);
#436=IFCRECTANGLEPROFILEDEF(.AREA.,$,#435,17.100000000004165,4.2203565070601137);
#437=IFCCARTESIANPOINT((7.9608157393623147,3.3138462142571217,1.76));
#438=IFCDIRECTION((0.97838797469754568,-0.20677758816475955,0.));
#439=IFCAXIS2PLACEMENT3D(#437,#127,#438);
#440=IFCEXTRUDEDAREASOLID(#436,#439,#130,0.39999999999999991);
#441=IFCCOLOURRGB($,0.37254901960784315,0.36862745098039218,0.33333333333333331);
#442=IFCSURFACESTYLERENDERING(#441,0.,$,$,$,$,IFCNORMALISEDRATIOMEASURE(0.5),IFCSPECULAREXPONENT(128.),.NOTDEFINED.);
#443=IFCSURFACESTYLE('Asphalt Shingle',.BOTH.,(#442));
#444=IFCPRESENTATIONSTYLEASSIGNMENT((#443));
#445=IFCSTYLEDITEM(#440,(#444),$);
#446=IFCSHAPEREPRESENTATION(#15,'Body','SweptSolid',(#440));
#447=IFCPRODUCTDEFINITIONSHAPE($,$,(#446));
#448=IFCSLAB('2P32JwsKn9EeNSuLHK8iFC',#6,'Suelo:Pavimento Articulado _ 00:1673576',$,$,#433,#447,'1673576',.FLOOR.);
#449=IFCSLABTYPE('3c$eTJGzb6LBFC9gxiPcSa',#6,'Suelo:Pavimento Articulado _ 00',$,$,(#467),$,'1675505',$,.FLOOR.);
#450=IFCMATERIAL('Asphalt Shingle');
#451=IFCPRESENTATIONSTYLEASSIGNMENT((#443));
#452=IFCSTYLEDITEM($,(#451),$);
#453=IFCSTYLEDREPRESENTATION(#13,'Style','Material',(#452));
#454=IFCMATERIALDEFINITIONREPRESENTATION($,$,(#453),#450);
#455=IFCMATERIALLAYER(#450,0.40000000000000002,$);
#456=IFCMATERIALLAYERSET((#455),'Suelo:Pavimento Articulado _ 00');
#457=IFCMATERIALLAYERSETUSAGE(#456,.AXIS3.,.POSITIVE.,0.);
#458=IFCPROPERTYSINGLEVALUE('Reference',$,IFCIDENTIFIER('Pavimento Articulado _ 00'),$);
#459=IFCPROPERTYSET('1vy5E1wNUK$5rU1Jw9x32x',#6,'Pset_QuantityTakeOff',$,(#458));
#460=IFCPROPERTYSINGLEVALUE('Reference',$,IFCLABEL('Pavimento Articulado _ 00'),$);
#461=IFCPROPERTYSET('2bsVRa4KyWFPrmX4ojDU_3',#6,'Pset_ReinforcementBarPitchOfSlab',$,(#460));
#462=IFCPROPERTYSET('3OyTynH0hMBxCCamws4RwF',#6,'Pset_SlabCommon',$,(#157,#158,#159,#458));
#463=IFCRELDEFINESBYPROPERTIES('2wVITkMf3oZ2QBZGgRPL3W',#6,$,$,(#448),#459);
#464=IFCRELDEFINESBYPROPERTIES('0zaK0NCTPeb$a4z0jpHBrM',#6,$,$,(#448),#461);
#465=IFCRELDEFINESBYPROPERTIES('21iHpq73pW86CH4U3h7nPD',#6,$,$,(#448),#462);
#466=IFCPROPERTYSINGLEVALUE('ThermalTransmittance',$,IFCTHERMALTRANSMITTANCEMEASURE(1.25),$);
#467=IFCPROPERTYSET('37NDGkCx4rwbbkmDDNPt9u',#6,'Pset_SlabCommon',$,(#466));
#468=IFCCARTESIANPOINT((-0.3333333333333296,-1.4166666666681018));
#469=IFCCARTESIANPOINT((0.16666666666667371,-1.4166666666681018));
#470=IFCCARTESIANPOINT((0.16666666666665503,2.8333333333361952));
#471=IFCPOLYLINE((#468,#469,#470,#468));
#472=IFCARBITRARYCLOSEDPROFILEDEF(.AREA.,'Rampa__01',#471);
#473=IFCCARTESIANPOINT((14.503645722342759,-0.22574027570695107,1.9266666666666699));
#474=IFCDIRECTION((0.20677758816477315,0.97838797469754279,-0.));
#475=IFCAXIS2PLACEMENT3D(#473,#474,#127);
#476=IFCEXTRUDEDAREASOLID(#472,#475,#130,1.9200000007390738);
#477=IFCSTYLEDITEM(#476,(#135),$);
#478=IFCSHAPEREPRESENTATION(#15,'Body','SweptSolid',(#476));
#479=IFCAXIS2PLACEMENT3D(#10,$,$);
#480=IFCREPRESENTATIONMAP(#479,#478);
#481=IFCBUILDINGELEMENTPROXYTYPE('3c$eTJGzb6LBFC9gxiPcz_',#6,'Rampa__01:Rampa__01',$,$,$,(#480),'1677483',$,.NOTDEFINED.);
#482=IFCCARTESIANTRANSFORMATIONOPERATOR3D($,$,#10,1.,$);
#483=IFCMAPPEDITEM(#480,#482);
#484=IFCSHAPEREPRESENTATION(#15,'Body','MappedRepresentation',(#483));
#485=IFCPRODUCTDEFINITIONSHAPE($,$,(#484));
#486=IFCAXIS2PLACEMENT3D(#10,$,$);
#487=IFCLOCALPLACEMENT(#24,#486);
#488=IFCBUILDINGELEMENTPROXY('3c$eTJGzb6LBFC9gxiPczu',#6,'Rampa__01:Rampa__01:1677485',$,$,#487,#485,'1677485',$);
#489=IFCPROPERTYSINGLEVALUE('Reference',$,IFCIDENTIFIER('Rampa__01'),$);
#490=IFCPROPERTYSET('1kd4LJtMTfF$1OP4$bjezi',#6,'Pset_BuildingElementProxyCommon',$,(#489));
#491=IFCPROPERTYSET('10gXofnyhcxsRumjhqxOcX',#6,'Pset_QuantityTakeOff',$,(#489));
#492=IFCRELDEFINESBYPROPERTIES('2WVit2HD890BQYI0TxClxm',#6,$,$,(#488),#490);
#493=IFCRELDEFINESBYPROPERTIES('0QvEaPuK36clWO65_kGFVf',#6,$,$,(#488),#491);
#494=IFCAXIS2PLACEMENT3D(#10,$,$);
#495=IFCLOCALPLACEMENT(#28,#494);
#496=IFCCARTESIANPOINT((-0.90253833092576385,-6.9798787881979907));
#497=IFCCARTESIANPOINT((2.3974616690742385,-6.979878788197988));
#498=IFCCARTESIANPOINT((2.139625398253584,7.8049893703950906));
#499=IFCCARTESIANPOINT((-0.89197540136715847,7.7521206781344167));
#500=IFCCARTESIANPOINT((-0.79503650557586547,2.193442726611226));
#501=IFCCARTESIANPOINT((-1.0449984985333374,2.1890835894569585));
#502=IFCCARTESIANPOINT((-0.90253833092570368,-5.9798787882017121));
#503=IFCPOLYLINE((#496,#497,#498,#499,#500,#501,#502,#496));
#504=IFCARBITRARYCLOSEDPROFILEDEF(.AREA.,$,#503);
#505=IFCCARTESIANPOINT((16.514189616492118,-2.4321895769566217,0.));
#506=IFCDIRECTION((0.98184471963303943,-0.18968644265924334,0.));
#507=IFCAXIS2PLACEMENT3D(#505,#127,#506);
#508=IFCEXTRUDEDAREASOLID(#504,#507,#130,0.5);
#509=IFCSTYLEDITEM(#508,(#135),$);
#510=IFCSHAPEREPRESENTATION(#15,'Body','SweptSolid',(#508));
#511=IFCPRODUCTDEFINITIONSHAPE($,$,(#510));
#512=IFCSLAB('3c$eTJGzb6LBFC9gxiPceS',#6,'Suelo:Vereda de CA_00:1678793',$,$,#495,#511,'1678793',.FLOOR.);
#513=IFCMATERIALLAYERSETUSAGE(#151,.AXIS3.,.POSITIVE.,0.);
#514=IFCPROPERTYSET('3JUvcWjNbO9mM_raVYgqVQ',#6,'Pset_QuantityTakeOff',$,(#153));
#515=IFCPROPERTYSINGLEVALUE('Reference',$,IFCLABEL('Vereda de CA_00'),$);
#516=IFCPROPERTYSET('3wxEJCT5rZ1KG_Ng1MH2$$',#6,'Pset_ReinforcementBarPitchOfSlab',$,(#515));
#517=IFCPROPERTYSET('0IgzRJTDzlirjfMCVnNhDQ',#6,'Pset_SlabCommon',$,(#153,#157,#158,#159));
#518=IFCRELDEFINESBYPROPERTIES('0VfTsV0rWekW4t_acIhMzc',#6,$,$,(#512),#514);
#519=IFCRELDEFINESBYPROPERTIES('0EpAZQ6g3gSSK0Y6JSQTUP',#6,$,$,(#512),#516);
#520=IFCRELDEFINESBYPROPERTIES('1UfCqZqmsxlRVoQPo4QTE8',#6,$,$,(#512),#517);
#521=IFCCARTESIANPOINT((-0.23719703194886962,-0.42123598237917392));
#522=IFCCARTESIANPOINT((0.26280296805112935,-0.42123598237917392));
#523=IFCCARTESIANPOINT((0.2628029680511258,0.49247196475834037));
#524=IFCCARTESIANPOINT((-0.025605936102259148,0.49247196475834037));
#525=IFCCARTESIANPOINT((-0.025605936102258336,-0.071235982379175278));
#526=IFCCARTESIANPOINT((-0.23719703194887046,-0.071235982379175278));
#527=IFCPOLYLINE((#521,#522,#523,#524,#525,#526,#521));
#528=IFCARBITRARYCLOSEDPROFILEDEF(.AREA.,'Escalera__01',#527);
#529=IFCCARTESIANPOINT((15.915931620558093,1.642609475292492,2.0228029680511255));
#530=IFCDIRECTION((0.20677758816477321,0.97838797469754279,-0.));
#531=IFCAXIS2PLACEMENT3D(#529,#530,#127);
#532=IFCEXTRUDEDAREASOLID(#528,#531,#130,2.100204478151666);
#533=IFCSTYLEDITEM(#532,(#135),$);
#534=IFCSHAPEREPRESENTATION(#15,'Body','SweptSolid',(#532));
#535=IFCAXIS2PLACEMENT3D(#10,$,$);
#536=IFCREPRESENTATIONMAP(#535,#534);
#537=IFCBUILDINGELEMENTPROXYTYPE('3c$eTJGzb6LBFC9gxiPcdJ',#6,'Escalera_01:Escalera__01',$,$,$,(#536),'1678854',$,.NOTDEFINED.);
#538=IFCMAPPEDITEM(#536,#482);
#539=IFCSHAPEREPRESENTATION(#15,'Body','MappedRepresentation',(#538));
#540=IFCPRODUCTDEFINITIONSHAPE($,$,(#539));
#541=IFCAXIS2PLACEMENT3D(#10,$,$);
#542=IFCLOCALPLACEMENT(#24,#541);
#543=IFCBUILDINGELEMENTPROXY('3c$eTJGzb6LBFC9gxiPcdT',#6,'Escalera_01:Escalera__01:1678856',$,$,#542,#540,'1678856',$);
#544=IFCPROPERTYSINGLEVALUE('Reference',$,IFCIDENTIFIER('Escalera__01'),$);
#545=IFCPROPERTYSET('38WmMAmi5FnUKhbIKpQdNO',#6,'Pset_BuildingElementProxyCommon',$,(#544));
#546=IFCPROPERTYSET('3W2UvR22Apswn8al_Sa3F0',#6,'Pset_QuantityTakeOff',$,(#544));
#547=IFCRELDEFINESBYPROPERTIES('3e$XEh$gsKz8n$$1yfWxkN',#6,$,$,(#543),#545);
#548=IFCRELDEFINESBYPROPERTIES('28nhFTI$7xQDcBPHVzCOSm',#6,$,$,(#543),#546);
#549=IFCCARTESIANPOINT((15.195222376752083,-4.409154890849833,-0.23999999999997793));
#550=IFCDIRECTION((-0.20677758816476116,-0.97838797469754535,0.));
#551=IFCAXIS2PLACEMENT3D(#549,#130,#550);
#552=IFCLOCALPLACEMENT(#24,#551);
#553=IFCCARTESIANPOINT((0.,0.));
#554=IFCCARTESIANPOINT((5.5595231556552891,0.));
#555=IFCPOLYLINE((#553,#554));
#556=IFCSHAPEREPRESENTATION(#14,'Axis','Curve2D',(#555));
#557=IFCPRODUCTDEFINITIONSHAPE($,$,(#556,#565));
#558=IFCCARTESIANPOINT((2.7797615778276437,2.7755575615628914E-017));
#559=IFCDIRECTION((-1.,0.));
#560=IFCAXIS2PLACEMENT2D(#558,#559);
#561=IFCRECTANGLEPROFILEDEF(.AREA.,$,#560,5.5595231556552873,0.25000000000000167);
#562=IFCAXIS2PLACEMENT3D(#10,$,$);
#563=IFCEXTRUDEDAREASOLID(#561,#562,#130,2.4999999999999774);
#564=IFCSTYLEDITEM(#563,(#135),$);
#565=IFCSHAPEREPRESENTATION(#15,'Body','SweptSolid',(#563));
#566=IFCWALLSTANDARDCASE('08Se$HfNPD1uA3FzD3EFpj',#6,'Muro b\X\E1sico:Muro de contenci\X\F3n - 0.25 m:1679566',$,$,#552,#557,'1679566');
#567=IFCMATERIALLAYER(#145,0.24999999999999997,$);
#568=IFCMATERIALLAYERSET((#567),'Muro b\X\E1sico:Muro de contenci\X\F3n - 0.25 m');
#569=IFCMATERIALLAYERSETUSAGE(#568,.AXIS2.,.NEGATIVE.,0.12499999999999999);
#570=IFCWALLTYPE('1xZrMVYp52mhf4uMzw11Hk',#6,'Muro b\X\E1sico:Muro de contenci\X\F3n - 0.25 m',$,$,(#582),$,'441451',$,.STANDARD.);
#571=IFCPROPERTYSINGLEVALUE('Reference',$,IFCIDENTIFIER('Muro de contenci\X\F3n - 0.25 m'),$);
#572=IFCPROPERTYSET('0zrwWVfisLkEp8dDaNji1K',#6,'Pset_QuantityTakeOff',$,(#571));
#573=IFCPROPERTYSINGLEVALUE('Reference',$,IFCLABEL('Muro de contenci\X\F3n - 0.25 m'),$);
#574=IFCPROPERTYSET('3JMGLV9OiS9_Ew5iCfQfqA',#6,'Pset_ReinforcementBarPitchOfWall',$,(#573));
#575=IFCPROPERTYSINGLEVALUE('IsExternal',$,IFCBOOLEAN(.T.),$);
#576=IFCPROPERTYSINGLEVALUE('ExtendToStructure',$,IFCBOOLEAN(.F.),$);
#577=IFCPROPERTYSET('2EcVgNTtzBZNRRgcWwTzPy',#6,'Pset_WallCommon',$,(#158,#571,#575,#576));
#578=IFCRELDEFINESBYPROPERTIES('0qMYKiXmRNT6puUshrWQGI',#6,$,$,(#566),#572);
#579=IFCRELDEFINESBYPROPERTIES('2VHiSwlKPPaRBZ1w09wL7N',#6,$,$,(#566),#574);
#580=IFCRELDEFINESBYPROPERTIES('16JenKj_R1W5ZSvlKSHfkn',#6,$,$,(#566),#577);
#581=IFCPROPERTYSINGLEVALUE('ThermalTransmittance',$,IFCTHERMALTRANSMITTANCEMEASURE(4.1840000000000002),$);
#582=IFCPROPERTYSET('0L0Okt2QW81$9AzwzwFw2y',#6,'Pset_WallCommon',$,(#581));
#583=IFCCARTESIANPOINT((12.100317790188154,2.3468121464516543,-0.5));
#584=IFCDIRECTION((0.97838797469754468,-0.20677758816476396,0.));
#585=IFCAXIS2PLACEMENT3D(#583,#130,#584);
#586=IFCLOCALPLACEMENT(#28,#585);
#587=IFCCARTESIANPOINT((4.3000000000000096,-0.));
#588=IFCPOLYLINE((#553,#587));
#589=IFCSHAPEREPRESENTATION(#14,'Axis','Curve2D',(#588));
#590=IFCPRODUCTDEFINITIONSHAPE($,$,(#589,#597));
#591=IFCCARTESIANPOINT((2.1500000000000057,-1.1796119636642288E-016));
#592=IFCAXIS2PLACEMENT2D(#591,#559);
#593=IFCRECTANGLEPROFILEDEF(.AREA.,$,#592,4.3000000000000114,0.20000000000000015);
#594=IFCAXIS2PLACEMENT3D(#10,$,$);
#595=IFCEXTRUDEDAREASOLID(#593,#594,#130,0.49999999999999573);
#596=IFCSTYLEDITEM(#595,(#135),$);
#597=IFCSHAPEREPRESENTATION(#15,'Body','SweptSolid',(#595));
#598=IFCWALLSTANDARDCASE('08Se$HfNPD1uA3FzD3EFt0',#6,'Muro b\X\E1sico:Muro de contenci\X\F3n - 0.20 m:1679843',$,$,#586,#590,'1679843');
#599=IFCMATERIALLAYER(#145,0.20000000000000001,$);
#600=IFCMATERIALLAYERSET((#599),'Muro b\X\E1sico:Muro de contenci\X\F3n - 0.20 m');
#601=IFCMATERIALLAYERSETUSAGE(#600,.AXIS2.,.NEGATIVE.,0.10000000000000001);
#602=IFCWALLTYPE('08Se$HfNPD1uA3FzD3EFrU',#6,'Muro b\X\E1sico:Muro de contenci\X\F3n - 0.20 m',$,$,(#613),$,'1679741',$,.STANDARD.);
#603=IFCPROPERTYSINGLEVALUE('Reference',$,IFCIDENTIFIER('Muro de contenci\X\F3n - 0.20 m'),$);
#604=IFCPROPERTYSET('2ACuPUbLNAEpVgn$CWbI0F',#6,'Pset_QuantityTakeOff',$,(#603));
#605=IFCPROPERTYSINGLEVALUE('Reference',$,IFCLABEL('Muro de contenci\X\F3n - 0.20 m'),$);
#606=IFCPROPERTYSET('01TSeGgLEgjRLvSEsHQX2N',#6,'Pset_ReinforcementBarPitchOfWall',$,(#605));
#607=IFCPROPERTYSINGLEVALUE('LoadBearing',$,IFCBOOLEAN(.F.),$);
#608=IFCPROPERTYSET('1$LtqY6wHtqbQtuWq86Us0',#6,'Pset_WallCommon',$,(#575,#576,#603,#607));
#609=IFCRELDEFINESBYPROPERTIES('1KlV$ncir36QKcOuWfnW$t',#6,$,$,(#598),#604);
#610=IFCRELDEFINESBYPROPERTIES('2bwZKHOlLy5W2Ur6MoQKEI',#6,$,$,(#598),#606);
#611=IFCRELDEFINESBYPROPERTIES('0i9O$6k6APtALTMBKMiuE9',#6,$,$,(#598),#608);
#612=IFCPROPERTYSINGLEVALUE('ThermalTransmittance',$,IFCTHERMALTRANSMITTANCEMEASURE(5.2300000000000004),$);
#613=IFCPROPERTYSET('2M9oYF3FAbVFVCuz1JF44c',#6,'Pset_WallCommon',$,(#612));
#614=IFCCARTESIANPOINT((16.201875617301003,0.23301853695185926,-2.4999999999999774));
#615=IFCDIRECTION((-0.20677758816476449,-0.97838797469754457,-0.));
#616=IFCAXIS2PLACEMENT3D(#614,#130,#615);
#617=IFCLOCALPLACEMENT(#28,#616);
#618=IFCCARTESIANPOINT((4.7499999874206038,0.));
#619=IFCPOLYLINE((#553,#618));
#620=IFCSHAPEREPRESENTATION(#14,'Axis','Curve2D',(#619));
#621=IFCPRODUCTDEFINITIONSHAPE($,$,(#620,#628));
#622=IFCCARTESIANPOINT((2.3749999937103019,1.3877787807814457E-016));
#623=IFCAXIS2PLACEMENT2D(#622,#559);
#624=IFCRECTANGLEPROFILEDEF(.AREA.,$,#623,4.7499999874206038,0.29999999999999905);
#625=IFCAXIS2PLACEMENT3D(#10,$,$);
#626=IFCEXTRUDEDAREASOLID(#624,#625,#130,1.9999999999999774);
#627=IFCSTYLEDITEM(#626,(#135),$);
#628=IFCSHAPEREPRESENTATION(#15,'Body','SweptSolid',(#626));
#629=IFCWALLSTANDARDCASE('08Se$HfNPD1uA3FzD3EFxB',#6,'Muro b\X\E1sico:Calzadura - 0.30:1680104',$,$,#617,#621,'1680104');
#630=IFCMATERIALLAYER(#145,0.29999999999999993,$);
#631=IFCMATERIALLAYERSET((#630),'Muro b\X\E1sico:Calzadura - 0.30');
#632=IFCMATERIALLAYERSETUSAGE(#631,.AXIS2.,.NEGATIVE.,0.14999999999999997);
#633=IFCWALLTYPE('2jz4SzqQr1HxAcS_yHSRFh',#6,'Muro b\X\E1sico:Calzadura - 0.30',$,$,(#643),$,'1681662',$,.STANDARD.);
#634=IFCPROPERTYSINGLEVALUE('Reference',$,IFCIDENTIFIER('Calzadura - 0.30'),$);
#635=IFCPROPERTYSET('2FvTCzsEn3QLvKaZhw6JY8',#6,'Pset_QuantityTakeOff',$,(#634));
#636=IFCPROPERTYSINGLEVALUE('Reference',$,IFCLABEL('Calzadura - 0.30'),$);
#637=IFCPROPERTYSET('04FohE3moWfC4MneyQoZSc',#6,'Pset_ReinforcementBarPitchOfWall',$,(#636));
#638=IFCPROPERTYSET('1WkZXlAH_pSEz0MioM9PJD',#6,'Pset_WallCommon',$,(#575,#576,#607,#634));
#639=IFCRELDEFINESBYPROPERTIES('1wNMZe0I7pup3FHwtIc4R6',#6,$,$,(#629),#635);
#640=IFCRELDEFINESBYPROPERTIES('391Cq82BeP7FgE88_NfkEo',#6,$,$,(#629),#637);
#641=IFCRELDEFINESBYPROPERTIES('2AsJiAmK5T8fvL3olJUka8',#6,$,$,(#629),#638);
#642=IFCPROPERTYSINGLEVALUE('ThermalTransmittance',$,IFCTHERMALTRANSMITTANCEMEASURE(3.4866666666666672),$);
#643=IFCPROPERTYSET('3g9eChZp$Fe1TR6yO8PJZj',#6,'Pset_WallCommon',$,(#642));
#644=IFCCARTESIANPOINT((1.2196969696968045,0.45333333333333409));
#645=IFCCARTESIANPOINT((1.6696969696968049,0.45333333333333409));
#646=IFCCARTESIANPOINT((1.6696969696968049,0.6333333333333343));
#647=IFCCARTESIANPOINT((2.0196969696968061,0.6333333333333343));
#648=IFCCARTESIANPOINT((2.0196969696968048,1.0533333333333355));
#649=IFCCARTESIANPOINT((1.3696969696973251,1.0533333333333319));
#650=IFCCARTESIANPOINT((1.3696969696973249,0.72333333333333338));
#651=IFCCARTESIANPOINT((0.56969696969732408,0.72333333333333338));
#652=IFCCARTESIANPOINT((0.5696969696973242,0.37333333333333335));
#653=IFCCARTESIANPOINT((-0.23030303030267579,0.37333333333333335));
#654=IFCCARTESIANPOINT((-0.23030303030267593,0.023333333333333307));
#655=IFCCARTESIANPOINT((-1.0303030303026759,0.023333333333333307));
#656=IFCCARTESIANPOINT((-1.0303030303026757,-0.32666666666666672));
#657=IFCCARTESIANPOINT((-1.8303030303026757,-0.32666666666666672));
#658=IFCCARTESIANPOINT((-1.8303030303026759,-0.64666666666666706));
#659=IFCCARTESIANPOINT((-2.1303030303031742,-0.64666666666666817));
#660=IFCCARTESIANPOINT((-2.1303030303031738,-0.94666666666666821));
#661=IFCCARTESIANPOINT((-1.5303030303033034,-0.94666666666666821));
#662=IFCCARTESIANPOINT((-1.5303030303033038,-0.80666666666666698));
#663=IFCCARTESIANPOINT((-1.1803030303031996,-0.80666666666666698));
#664=IFCCARTESIANPOINT((-1.1803030303031998,-0.62666666666666671));
#665=IFCCARTESIANPOINT((-0.73030303030319776,-0.62666666666666671));
#666=IFCCARTESIANPOINT((-0.73030303030319799,-0.44666666666666649));
#667=IFCCARTESIANPOINT((-0.38030303030319845,-0.44666666666666649));
#668=IFCCARTESIANPOINT((-0.38030303030319845,-0.26666666666667416));
#669=IFCCARTESIANPOINT((0.069696969696803501,-0.26666666666667416));
#670=IFCCARTESIANPOINT((0.069696969696803238,-0.086666666666665504));
#671=IFCCARTESIANPOINT((0.41969696969680326,-0.086666666666665504));
#672=IFCCARTESIANPOINT((0.41969696969680326,0.093333333333334184));
#673=IFCCARTESIANPOINT((0.8696969696970237,0.093333333333334184));
#674=IFCCARTESIANPOINT((0.86969696969702359,0.27333333333334281));
#675=IFCCARTESIANPOINT((1.2196969696968047,0.27333333333334281));
#676=IFCPOLYLINE((#644,#645,#646,#647,#648,#649,#650,#651,#652,#653,#654,#655,#656,#657,#658,#659,#660,#661,#662,#663,#664,#665,#666,#667,#668,#669,#670,#671,#672,#673,#674,#675,#644));
#677=IFCARBITRARYCLOSEDPROFILEDEF(.AREA.,'Graderias_00',#676);
#678=IFCCARTESIANPOINT((-1.3122545750572554,0.78620050182929535,0.81333333333333191));
#679=IFCDIRECTION((0.97838797469754812,-0.20677758816474792,0.));
#680=IFCDIRECTION((-0.20677758816474792,-0.97838797469754812,-0.));
#681=IFCAXIS2PLACEMENT3D(#678,#679,#680);
#682=IFCEXTRUDEDAREASOLID(#677,#681,#130,1.2000000000000193);
#683=IFCSTYLEDITEM(#682,(#135),$);
#684=IFCSHAPEREPRESENTATION(#15,'Body','SweptSolid',(#682));
#685=IFCAXIS2PLACEMENT3D(#10,$,$);
#686=IFCREPRESENTATIONMAP(#685,#684);
#687=IFCBUILDINGELEMENTPROXYTYPE('1Bs7r3x_n0fBeqV9FCVniP',#6,'Graderias_4:Graderias_00',$,$,$,(#686),'1684453',$,.NOTDEFINED.);
#688=IFCMAPPEDITEM(#686,#482);
#689=IFCSHAPEREPRESENTATION(#15,'Body','MappedRepresentation',(#688));
#690=IFCPRODUCTDEFINITIONSHAPE($,$,(#689));
#691=IFCAXIS2PLACEMENT3D(#10,$,$);
#692=IFCLOCALPLACEMENT(#24,#691);
#693=IFCBUILDINGELEMENTPROXY('1Bs7r3x_n0fBeqV9FCVniR',#6,'Graderias_4:Graderias_00:1684455',$,$,#692,#690,'1684455',$);
#694=IFCPROPERTYSINGLEVALUE('Reference',$,IFCIDENTIFIER('Graderias_00'),$);
#695=IFCPROPERTYSET('0zFQc9ual8EeD$jjIYTu7j',#6,'Pset_BuildingElementProxyCommon',$,(#694));
#696=IFCPROPERTYSET('1evpfBGF_hX1YqpYgoKq7i',#6,'Pset_QuantityTakeOff',$,(#694));
#697=IFCRELDEFINESBYPROPERTIES('3pDOaFzpdby$EXV1kvROsY',#6,$,$,(#693),#695);
#698=IFCRELDEFINESBYPROPERTIES('2yokxGXlPzQKyqsSlq3Xlq',#6,$,$,(#693),#696);
#699=IFCCARTESIANPOINT((1.1363636363633505,0.46181818181818335));
#700=IFCCARTESIANPOINT((1.9363636363633503,0.46181818181818335));
#701=IFCCARTESIANPOINT((1.9363636363633507,1.0618181818181833));
#702=IFCCARTESIANPOINT((1.6363636363639746,1.0618181818181811));
#703=IFCCARTESIANPOINT((1.6363636363639751,0.73181818181818259));
#704=IFCCARTESIANPOINT((0.83636363636397448,0.73181818181818259));
#705=IFCCARTESIANPOINT((0.83636363636397426,0.38181818181818256));
#706=IFCCARTESIANPOINT((0.036363636363973932,0.38181818181818256));
#707=IFCCARTESIANPOINT((0.036363636363974217,0.031818181818182537));
#708=IFCCARTESIANPOINT((-0.76363636363602616,0.031818181818182537));
#709=IFCCARTESIANPOINT((-0.76363636363602649,-0.31818181818181734));
#710=IFCCARTESIANPOINT((-1.563636363636026,-0.31818181818181734));
#711=IFCCARTESIANPOINT((-1.5636363636360249,-0.63818181818181896));
#712=IFCCARTESIANPOINT((-1.863636363636612,-0.63818181818181896));
#713=IFCCARTESIANPOINT((-1.863636363636612,-0.938181818181819));
#714=IFCCARTESIANPOINT((-1.2636363636366554,-0.938181818181819));
#715=IFCCARTESIANPOINT((-1.2636363636366559,-0.6181818181818175));
#716=IFCCARTESIANPOINT((-0.463636363636652,-0.6181818181818175));
#717=IFCCARTESIANPOINT((-0.46363636363665289,-0.2581818181818249));
#718=IFCCARTESIANPOINT((0.33636363636334948,-0.2581818181818249));
#719=IFCCARTESIANPOINT((0.33636363636334921,0.1018181818181834));
#720=IFCCARTESIANPOINT((1.1363636363633509,0.1018181818181834));
#721=IFCPOLYLINE((#699,#700,#701,#702,#703,#704,#705,#706,#707,#708,#709,#710,#711,#712,#713,#714,#715,#716,#717,#718,#719,#720,#699));
#722=IFCARBITRARYCLOSEDPROFILEDEF(.AREA.,'Graderias_00',#721);
#723=IFCCARTESIANPOINT((-0.083048315242943524,0.79897085595082284,0.82181818181818111));
#724=IFCDIRECTION((0.97838797469754801,-0.20677758816474812,0.));
#725=IFCDIRECTION((-0.20677758816474812,-0.97838797469754801,-0.));
#726=IFCAXIS2PLACEMENT3D(#723,#724,#725);
#727=IFCEXTRUDEDAREASOLID(#722,#726,#130,10.099999999999598);
#728=IFCSTYLEDITEM(#727,(#135),$);
#729=IFCSHAPEREPRESENTATION(#15,'Body','SweptSolid',(#727));
#730=IFCAXIS2PLACEMENT3D(#10,$,$);
#731=IFCREPRESENTATIONMAP(#730,#729);
#732=IFCBUILDINGELEMENTPROXYTYPE('1Bs7r3x_n0fBeqV9FCVnnF',#6,'Graderias_2:Graderias_00',$,$,$,(#731),'1684659',$,.NOTDEFINED.);
#733=IFCMAPPEDITEM(#731,#482);
#734=IFCSHAPEREPRESENTATION(#15,'Body','MappedRepresentation',(#733));
#735=IFCPRODUCTDEFINITIONSHAPE($,$,(#734));
#736=IFCAXIS2PLACEMENT3D(#10,$,$);
#737=IFCLOCALPLACEMENT(#24,#736);
#738=IFCBUILDINGELEMENTPROXY('1Bs7r3x_n0fBeqV9FCVnn9',#6,'Graderias_2:Graderias_00:1684661',$,$,#737,#735,'1684661',$);
#739=IFCPROPERTYSET('14Itf908xqaAfkRePfLSYl',#6,'Pset_BuildingElementProxyCommon',$,(#694));
#740=IFCPROPERTYSET('2q92RdcjpGzjFPY9cVSCte',#6,'Pset_QuantityTakeOff',$,(#694));
#741=IFCRELDEFINESBYPROPERTIES('39_m3$MxIi0xgRYbIWymoX',#6,$,$,(#738),#739);
#742=IFCRELDEFINESBYPROPERTIES('2oW2Falp$324C7k5XfUSu$',#6,$,$,(#738),#740);
#743=IFCCARTESIANPOINT((0.,0.));
#744=IFCAXIS2PLACEMENT2D(#743,#370);
#745=IFCRECTANGLEPROFILEDEF(.AREA.,'Relleno 1',#744,10.399999999999798,0.80000000000007909);
#746=IFCCARTESIANPOINT((-5.8456454473275956,4.4838202136800662,0.0099999999999998927));
#747=IFCDIRECTION((0.97838797469754457,-0.20677758816476438,0.));
#748=IFCAXIS2PLACEMENT3D(#746,#130,#747);
#749=IFCEXTRUDEDAREASOLID(#745,#748,#130,1.7499999999999998);
#750=IFCSTYLEDITEM(#749,(#111),$);
#751=IFCSHAPEREPRESENTATION(#15,'Body','SweptSolid',(#749));
#752=IFCAXIS2PLACEMENT3D(#10,$,$);
#753=IFCREPRESENTATIONMAP(#752,#751);
#754=IFCBUILDINGELEMENTPROXYTYPE('1EcVKsaC56I8yywVyjBx2v',#6,'Relleno 3:Relleno 1',$,$,$,(#753),'1696897',$,.NOTDEFINED.);
#755=IFCMATERIAL('Tierra RV2');
#756=IFCPRESENTATIONSTYLEASSIGNMENT((#110));
#757=IFCSTYLEDITEM($,(#756),$);
#758=IFCSTYLEDREPRESENTATION(#13,'Style','Material',(#757));
#759=IFCMATERIALDEFINITIONREPRESENTATION($,$,(#758),#755);
#760=IFCMAPPEDITEM(#753,#482);
#761=IFCSHAPEREPRESENTATION(#15,'Body','MappedRepresentation',(#760));
#762=IFCPRODUCTDEFINITIONSHAPE($,$,(#761));
#763=IFCAXIS2PLACEMENT3D(#10,$,$);
#764=IFCLOCALPLACEMENT(#24,#763);
#765=IFCBUILDINGELEMENTPROXY('1EcVKsaC56I8yywVyjBx2x',#6,'Relleno 3:Relleno 1:1696899',$,$,#764,#762,'1696899',$);
#766=IFCPROPERTYSINGLEVALUE('Reference',$,IFCIDENTIFIER('Relleno 1'),$);
#767=IFCPROPERTYSET('0HNrtDrtmXmop7mfNcOvCz',#6,'Pset_BuildingElementProxyCommon',$,(#766));
#768=IFCPROPERTYSET('3gyF2qEYkRF2_9_xYTCt6f',#6,'Pset_QuantityTakeOff',$,(#766));
#769=IFCRELDEFINESBYPROPERTIES('03j_53e7obF6Beg4ELAs3j',#6,$,$,(#765),#767);
#770=IFCRELDEFINESBYPROPERTIES('3I5MFEWwL5rSW$wRaXE9wu',#6,$,$,(#765),#768);
#771=IFCCARTESIANPOINT((-11.031482270133001,5.0943293841554249,0.));
#772=IFCDIRECTION((0.97838797469754535,-0.20677758816476097,0.));
#773=IFCAXIS2PLACEMENT3D(#771,#130,#772);
#774=IFCLOCALPLACEMENT(#24,#773);
#775=IFCCARTESIANPOINT((27.500000000003933,0.));
#776=IFCPOLYLINE((#553,#775));
#777=IFCSHAPEREPRESENTATION(#14,'Axis','Curve2D',(#776));
#778=IFCPRODUCTDEFINITIONSHAPE($,$,(#777,#785));
#779=IFCCARTESIANPOINT((13.750000000001968,9.1593399531575415E-016));
#780=IFCAXIS2PLACEMENT2D(#779,#559);
#781=IFCRECTANGLEPROFILEDEF(.AREA.,$,#780,27.500000000003936,0.15000000000000055);
#782=IFCAXIS2PLACEMENT3D(#10,$,$);
#783=IFCEXTRUDEDAREASOLID(#781,#782,#130,1.7600000000000007);
#784=IFCSTYLEDITEM(#783,(#135),$);
#785=IFCSHAPEREPRESENTATION(#15,'Body','SweptSolid',(#783));
#786=IFCWALLSTANDARDCASE('05luym9y92rOraYVm2HQcw',#6,'Muro b\X\E1sico:Muro de contenci\X\F3n - 0.15 m:1697479',$,$,#774,#778,'1697479');
#787=IFCMATERIALLAYER(#145,0.14999999999999997,$);
#788=IFCMATERIALLAYERSET((#787),'Muro b\X\E1sico:Muro de contenci\X\F3n - 0.15 m');
#789=IFCMATERIALLAYERSETUSAGE(#788,.AXIS2.,.NEGATIVE.,0.074999999999999983);
#790=IFCWALLTYPE('08Se$HfNPD1uA3FzD3EFv3',#6,'Muro b\X\E1sico:Muro de contenci\X\F3n - 0.15 m',$,$,(#800),$,'1679968',$,.STANDARD.);
#791=IFCPROPERTYSINGLEVALUE('Reference',$,IFCIDENTIFIER('Muro de contenci\X\F3n - 0.15 m'),$);
#792=IFCPROPERTYSET('0$8JJsrKFb1FgwOhrcw5wV',#6,'Pset_QuantityTakeOff',$,(#791));
#793=IFCPROPERTYSINGLEVALUE('Reference',$,IFCLABEL('Muro de contenci\X\F3n - 0.15 m'),$);
#794=IFCPROPERTYSET('0ASHpaj1F1sgf2YS_iWLb7',#6,'Pset_ReinforcementBarPitchOfWall',$,(#793));
#795=IFCPROPERTYSET('0UOruEDNZKKvQv9YgpaDuN',#6,'Pset_WallCommon',$,(#158,#575,#576,#791));
#796=IFCRELDEFINESBYPROPERTIES('1AG$EtcaIOsQNIrxgSM4rU',#6,$,$,(#786),#792);
#797=IFCRELDEFINESBYPROPERTIES('26Q5BmB5r3ftKGGw62Tfb6',#6,$,$,(#786),#794);
#798=IFCRELDEFINESBYPROPERTIES('1_foT6yU6f5MbIc$2Eh2i_',#6,$,$,(#786),#795);
#799=IFCPROPERTYSINGLEVALUE('ThermalTransmittance',$,IFCTHERMALTRANSMITTANCEMEASURE(6.9733333333333345),$);
#800=IFCPROPERTYSET('29hpO7gHUJLzAOMVZPsQfD',#6,'Pset_WallCommon',$,(#799));
#801=IFCAXIS2PLACEMENT3D(#10,$,$);
#802=IFCLOCALPLACEMENT(#24,#801);
#803=IFCCARTESIANPOINT((2.6645352591003757E-015,0.));
#804=IFCAXIS2PLACEMENT2D(#803,#370);
#805=IFCRECTANGLEPROFILEDEF(.AREA.,$,#804,27.499999999999552,1.25);
#806=IFCCARTESIANPOINT((2.4730467789992079,2.495734540564349,0.0099999999999998927));
#807=IFCDIRECTION((0.97838797469754424,-0.20677758816476596,0.));
#808=IFCAXIS2PLACEMENT3D(#806,#127,#807);
#809=IFCEXTRUDEDAREASOLID(#805,#808,#130,0.24999999999999997);
#810=IFCSTYLEDITEM(#809,(#135),$);
#811=IFCSHAPEREPRESENTATION(#15,'Body','SweptSolid',(#809));
#812=IFCPRODUCTDEFINITIONSHAPE($,$,(#811));
#813=IFCSLAB('05luym9y92rOraYVm2HQct',#6,'Losa de cimentaci\X\F3n:Cimentaci\X\F3n Muros 0.25 cm:1697482',$,$,#802,#812,'1697482',.BASESLAB.);
#814=IFCSLABTYPE('3EsCeMPiPAZgpz2pTqNdNT',#6,'Losa de cimentaci\X\F3n:Cimentaci\X\F3n Muros 0.25 cm',$,$,(#827),$,'1692361',$,.BASESLAB.);
#815=IFCMATERIALLAYER(#145,0.24999999999999997,$);
#816=IFCMATERIALLAYERSET((#815),'Losa de cimentaci\X\F3n:Cimentaci\X\F3n Muros 0.25 cm');
#817=IFCMATERIALLAYERSETUSAGE(#816,.AXIS3.,.POSITIVE.,0.);
#818=IFCPROPERTYSINGLEVALUE('Reference',$,IFCIDENTIFIER('Cimentaci\X\F3n Muros 0.25 cm'),$);
#819=IFCPROPERTYSET('1y8KsWjgtet795G0WW0PF4',#6,'Pset_QuantityTakeOff',$,(#818));
#820=IFCPROPERTYSINGLEVALUE('Reference',$,IFCLABEL('Cimentaci\X\F3n Muros 0.25 cm'),$);
#821=IFCPROPERTYSET('0_DysxJfO7W9kBLk0ri_jC',#6,'Pset_ReinforcementBarPitchOfSlab',$,(#820));
#822=IFCPROPERTYSET('3ujZKj9AJIQXcSCBP$WG6z',#6,'Pset_SlabCommon',$,(#157,#158,#159,#818));
#823=IFCRELDEFINESBYPROPERTIES('2EvR0SKXY3Kzkv$n5vlkNc',#6,$,$,(#813),#819);
#824=IFCRELDEFINESBYPROPERTIES('3OHNdo3tJhN$eKjx31gzGt',#6,$,$,(#813),#821);
#825=IFCRELDEFINESBYPROPERTIES('0oWhj6FFL3SDHZ_h$64$Ci',#6,$,$,(#813),#822);
#826=IFCPROPERTYSINGLEVALUE('ThermalTransmittance',$,IFCTHERMALTRANSMITTANCEMEASURE(4.1840000000000002),$);
#827=IFCPROPERTYSET('28s7FeAwP9sPxhnAoZpLgv',#6,'Pset_SlabCommon',$,(#826));
#828=IFCCARTESIANPOINT((-1.7763568394002505E-015,-6.9388939039072284E-016));
#829=IFCAXIS2PLACEMENT2D(#828,#370);
#830=IFCRECTANGLEPROFILEDEF(.AREA.,'Relleno 1',#829,17.09999999999976,0.80000000000035365);
#831=IFCCARTESIANPOINT((7.4831226518644502,1.0535955915955217,0.0099999999999998927));
#832=IFCDIRECTION((0.97838797469754457,-0.20677758816476441,0.));
#833=IFCAXIS2PLACEMENT3D(#831,#130,#832);
#834=IFCEXTRUDEDAREASOLID(#830,#833,#130,1.3500000000000001);
#835=IFCSTYLEDITEM(#834,(#111),$);
#836=IFCSHAPEREPRESENTATION(#15,'Body','SweptSolid',(#834));
#837=IFCAXIS2PLACEMENT3D(#10,$,$);
#838=IFCREPRESENTATIONMAP(#837,#836);
#839=IFCBUILDINGELEMENTPROXYTYPE('05luym9y92rOraYVm2HQZz',#6,'Relleno 1:Relleno 1',$,$,$,(#838),'1697664',$,.NOTDEFINED.);
#840=IFCMAPPEDITEM(#838,#482);
#841=IFCSHAPEREPRESENTATION(#15,'Body','MappedRepresentation',(#840));
#842=IFCPRODUCTDEFINITIONSHAPE($,$,(#841));
#843=IFCCARTESIANPOINT((0.12406655289893129,0.587032784818871,0.));
#844=IFCAXIS2PLACEMENT3D(#843,$,$);
#845=IFCLOCALPLACEMENT(#24,#844);
#846=IFCBUILDINGELEMENTPROXY('05luym9y92rOraYVm2HQZ$',#6,'Relleno 1:Relleno 1:1697666',$,$,#845,#842,'1697666',$);
#847=IFCPROPERTYSET('3sHo6wneR_ZU325PZX2rUA',#6,'Pset_BuildingElementProxyCommon',$,(#766));
#848=IFCPROPERTYSET('2d_7co7EBCQrH925ktjEkM',#6,'Pset_QuantityTakeOff',$,(#766));
#849=IFCRELDEFINESBYPROPERTIES('1P_18JVfKYi7UeABkEDEJJ',#6,$,$,(#846),#847);
#850=IFCRELDEFINESBYPROPERTIES('2TQbQTmhzerdSvxys6BSaB',#6,$,$,(#846),#848);
#851=IFCCARTESIANPOINT((1.2196969696968045,0.45515151515151586));
#852=IFCCARTESIANPOINT((1.6696969696968051,0.45515151515151586));
#853=IFCCARTESIANPOINT((1.6696969696968051,0.63515151515151613));
#854=IFCCARTESIANPOINT((2.0196969696968061,0.63515151515151613));
#855=IFCCARTESIANPOINT((2.0196969696968048,1.0551515151515172));
#856=IFCCARTESIANPOINT((1.3696969696973251,1.0551515151515136));
#857=IFCCARTESIANPOINT((1.3696969696973251,0.7251515151515151));
#858=IFCCARTESIANPOINT((0.56969696969732408,0.7251515151515151));
#859=IFCCARTESIANPOINT((0.56969696969732386,0.37515151515151512));
#860=IFCCARTESIANPOINT((-0.23030303030267579,0.37515151515151512));
#861=IFCCARTESIANPOINT((-0.23030303030267593,0.025151515151515081));
#862=IFCCARTESIANPOINT((-1.0303030303026759,0.025151515151515081));
#863=IFCCARTESIANPOINT((-1.0303030303026757,-0.32484848484848494));
#864=IFCCARTESIANPOINT((-1.8303030303026757,-0.32484848484848494));
#865=IFCCARTESIANPOINT((-1.8303030303026759,-0.67484848484848492));
#866=IFCCARTESIANPOINT((-2.1303030303031738,-0.67484848484848603));
#867=IFCCARTESIANPOINT((-2.1303030303031734,-0.94484848484848638));
#868=IFCCARTESIANPOINT((-1.5303030303033038,-0.94484848484848638));
#869=IFCCARTESIANPOINT((-1.5303030303033045,-0.80484848484848515));
#870=IFCCARTESIANPOINT((-1.1803030303031996,-0.80484848484848515));
#871=IFCCARTESIANPOINT((-1.1803030303031998,-0.62484848484848499));
#872=IFCCARTESIANPOINT((-0.73030303030319776,-0.62484848484848499));
#873=IFCCARTESIANPOINT((-0.73030303030319799,-0.44484848484848472));
#874=IFCCARTESIANPOINT((-0.38030303030319806,-0.44484848484848472));
#875=IFCCARTESIANPOINT((-0.38030303030319806,-0.26484848484849238));
#876=IFCCARTESIANPOINT((0.069696969696803376,-0.26484848484849238));
#877=IFCCARTESIANPOINT((0.069696969696803376,-0.08484848484848373));
#878=IFCCARTESIANPOINT((0.41969696969680342,-0.08484848484848373));
#879=IFCCARTESIANPOINT((0.41969696969680326,0.095151515151515959));
#880=IFCCARTESIANPOINT((0.8696969696970237,0.095151515151515959));
#881=IFCCARTESIANPOINT((0.86969696969702359,0.27515151515152458));
#882=IFCCARTESIANPOINT((1.2196969696968047,0.27515151515152458));
#883=IFCPOLYLINE((#851,#852,#853,#854,#855,#856,#857,#858,#859,#860,#861,#862,#863,#864,#865,#866,#867,#868,#869,#870,#871,#872,#873,#874,#875,#876,#877,#878,#879,#880,#881,#882,#851));
#884=IFCARBITRARYCLOSEDPROFILEDEF(.AREA.,'Graderias_00',#883);
#885=IFCCARTESIANPOINT((-1.3122545750572552,0.78620050182929535,0.81515151515151363));
#886=IFCDIRECTION((0.97838797469754812,-0.20677758816474787,0.));
#887=IFCDIRECTION((-0.20677758816474787,-0.97838797469754812,-0.));
#888=IFCAXIS2PLACEMENT3D(#885,#886,#887);
#889=IFCEXTRUDEDAREASOLID(#884,#888,#130,1.4999999999999871);
#890=IFCSTYLEDITEM(#889,(#135),$);
#891=IFCSHAPEREPRESENTATION(#15,'Body','SweptSolid',(#889));
#892=IFCAXIS2PLACEMENT3D(#10,$,$);
#893=IFCREPRESENTATIONMAP(#892,#891);
#894=IFCBUILDINGELEMENTPROXYTYPE('05luym9y92rOraYVm2HQCq',#6,'Graderias_1:Graderias_00',$,$,$,(#893),'1698889',$,.NOTDEFINED.);
#895=IFCMAPPEDITEM(#893,#482);
#896=IFCSHAPEREPRESENTATION(#15,'Body','MappedRepresentation',(#895));
#897=IFCPRODUCTDEFINITIONSHAPE($,$,(#896));
#898=IFCCARTESIANPOINT((-10.175234936854229,2.1504869169134992,0.));
#899=IFCAXIS2PLACEMENT3D(#898,$,$);
#900=IFCLOCALPLACEMENT(#24,#899);
#901=IFCBUILDINGELEMENTPROXY('05luym9y92rOraYVm2HQCs',#6,'Graderias_1:Graderias_00:1698891',$,$,#900,#897,'1698891',$);
#902=IFCPROPERTYSET('3ATxmh7g2hJD9CmUaLjOUl',#6,'Pset_BuildingElementProxyCommon',$,(#694));
#903=IFCPROPERTYSET('3KMeEJwhqOkoTEm_2ivUFj',#6,'Pset_QuantityTakeOff',$,(#694));
#904=IFCRELDEFINESBYPROPERTIES('0bGrx0AHdnvYSpOV04I$RU',#6,$,$,(#901),#902);
#905=IFCRELDEFINESBYPROPERTIES('1mQKrdeTNiu28Lt_3_DjgO',#6,$,$,(#901),#903);
#906=IFCCARTESIANPOINT((1.1363636363633507,0.46454545454545598));
#907=IFCCARTESIANPOINT((1.9363636363633505,0.46454545454545598));
#908=IFCCARTESIANPOINT((1.9363636363633505,1.064545454545456));
#909=IFCCARTESIANPOINT((1.6363636363639749,1.0645454545454538));
#910=IFCCARTESIANPOINT((1.6363636363639749,0.73454545454545528));
#911=IFCCARTESIANPOINT((0.83636363636397426,0.73454545454545528));
#912=IFCCARTESIANPOINT((0.83636363636397437,0.38454545454545525));
#913=IFCCARTESIANPOINT((0.0363636363639738,0.38454545454545525));
#914=IFCCARTESIANPOINT((0.036363636363974078,0.034545454545455198));
#915=IFCCARTESIANPOINT((-0.76363636363602549,0.034545454545455198));
#916=IFCCARTESIANPOINT((-0.76363636363602605,-0.31545454545454471));
#917=IFCCARTESIANPOINT((-1.5636363636360249,-0.31545454545454471));
#918=IFCCARTESIANPOINT((-1.5636363636360249,-0.66545454545454485));
#919=IFCCARTESIANPOINT((-1.8636363636366124,-0.66545454545454485));
#920=IFCCARTESIANPOINT((-1.8636363636366124,-0.93545454545454632));
#921=IFCCARTESIANPOINT((-1.2636363636366554,-0.93545454545454632));
#922=IFCCARTESIANPOINT((-1.2636363636366554,-0.61545454545454481));
#923=IFCCARTESIANPOINT((-0.46363636363665212,-0.61545454545454481));
#924=IFCCARTESIANPOINT((-0.463636363636653,-0.25545454545455226));
#925=IFCCARTESIANPOINT((0.33636363636334937,-0.25545454545455226));
#926=IFCCARTESIANPOINT((0.33636363636334909,0.10454545454545607));
#927=IFCCARTESIANPOINT((1.1363636363633507,0.10454545454545607));
#928=IFCPOLYLINE((#906,#907,#908,#909,#910,#911,#912,#913,#914,#915,#916,#917,#918,#919,#920,#921,#922,#923,#924,#925,#926,#927,#906));
#929=IFCARBITRARYCLOSEDPROFILEDEF(.AREA.,'Graderias_00',#928);
#930=IFCCARTESIANPOINT((-0.083048315242943593,0.79897085595082273,0.82454545454545369));
#931=IFCDIRECTION((0.97838797469754801,-0.20677758816474806,0.));
#932=IFCDIRECTION((-0.20677758816474806,-0.97838797469754801,-0.));
#933=IFCAXIS2PLACEMENT3D(#930,#931,#932);
#934=IFCEXTRUDEDAREASOLID(#929,#933,#130,8.8999999999997641);
#935=IFCSTYLEDITEM(#934,(#135),$);
#936=IFCSHAPEREPRESENTATION(#15,'Body','SweptSolid',(#934));
#937=IFCAXIS2PLACEMENT3D(#10,$,$);
#938=IFCREPRESENTATIONMAP(#937,#936);
#939=IFCBUILDINGELEMENTPROXYTYPE('05luym9y92rOraYVm2HQEk',#6,'Graderias_3:Graderias_00',$,$,$,(#938),'1699027',$,.NOTDEFINED.);
#940=IFCMAPPEDITEM(#938,#482);
#941=IFCSHAPEREPRESENTATION(#15,'Body','MappedRepresentation',(#940));
#942=IFCPRODUCTDEFINITIONSHAPE($,$,(#941));
#943=IFCCARTESIANPOINT((-9.8817185444449827,2.0884536404641096,0.));
#944=IFCAXIS2PLACEMENT3D(#943,$,$);
#945=IFCLOCALPLACEMENT(#24,#944);
#946=IFCBUILDINGELEMENTPROXY('05luym9y92rOraYVm2HQEe',#6,'Graderias_3:Graderias_00:1699029',$,$,#945,#942,'1699029',$);
#947=IFCPROPERTYSET('0KNwioxMoCpnVsfSzgcsuj',#6,'Pset_BuildingElementProxyCommon',$,(#694));
#948=IFCPROPERTYSET('3j11HFzWcRmvruP2$idKzT',#6,'Pset_QuantityTakeOff',$,(#694));
#949=IFCRELDEFINESBYPROPERTIES('1e2bNmuNoDlRYQpGTFTo6C',#6,$,$,(#946),#947);
#950=IFCRELDEFINESBYPROPERTIES('0q5HH9I6d_ZmokkFAIDqIr',#6,$,$,(#946),#948);
#951=IFCCARTESIANPOINT((1.2196969696968045,0.45515151515151586));
#952=IFCCARTESIANPOINT((1.6696969696968049,0.45515151515151586));
#953=IFCCARTESIANPOINT((1.6696969696968049,0.63515151515151613));
#954=IFCCARTESIANPOINT((2.0196969696968061,0.63515151515151613));
#955=IFCCARTESIANPOINT((2.0196969696968048,1.0551515151515172));
#956=IFCCARTESIANPOINT((1.3696969696973249,1.0551515151515136));
#957=IFCCARTESIANPOINT((1.3696969696973251,0.7251515151515151));
#958=IFCCARTESIANPOINT((0.5696969696973242,0.7251515151515151));
#959=IFCCARTESIANPOINT((0.56969696969732397,0.37515151515151512));
#960=IFCCARTESIANPOINT((-0.23030303030267579,0.37515151515151512));
#961=IFCCARTESIANPOINT((-0.23030303030267621,0.025151515151515081));
#962=IFCCARTESIANPOINT((-1.0303030303026763,0.025151515151515081));
#963=IFCCARTESIANPOINT((-1.0303030303026763,-0.32484848484848494));
#964=IFCCARTESIANPOINT((-1.8303030303026759,-0.32484848484848494));
#965=IFCCARTESIANPOINT((-1.8303030303026759,-0.67484848484848492));
#966=IFCCARTESIANPOINT((-2.1303030303031742,-0.67484848484848603));
#967=IFCCARTESIANPOINT((-2.1303030303031738,-0.94484848484848638));
#968=IFCCARTESIANPOINT((-1.5303030303033034,-0.94484848484848638));
#969=IFCCARTESIANPOINT((-1.5303030303033034,-0.80484848484848515));
#970=IFCCARTESIANPOINT((-1.1803030303031996,-0.80484848484848515));
#971=IFCCARTESIANPOINT((-1.1803030303031998,-0.62484848484848499));
#972=IFCCARTESIANPOINT((-0.73030303030319776,-0.62484848484848499));
#973=IFCCARTESIANPOINT((-0.73030303030319799,-0.44484848484848472));
#974=IFCCARTESIANPOINT((-0.38030303030319834,-0.44484848484848472));
#975=IFCCARTESIANPOINT((-0.38030303030319806,-0.26484848484849238));
#976=IFCCARTESIANPOINT((0.069696969696803376,-0.26484848484849238));
#977=IFCCARTESIANPOINT((0.069696969696803099,-0.08484848484848373));
#978=IFCCARTESIANPOINT((0.41969696969680309,-0.08484848484848373));
#979=IFCCARTESIANPOINT((0.41969696969680309,0.095151515151515959));
#980=IFCCARTESIANPOINT((0.86969696969702359,0.095151515151515959));
#981=IFCCARTESIANPOINT((0.86969696969702348,0.27515151515152458));
#982=IFCCARTESIANPOINT((1.2196969696968045,0.27515151515152458));
#983=IFCPOLYLINE((#951,#952,#953,#954,#955,#956,#957,#958,#959,#960,#961,#962,#963,#964,#965,#966,#967,#968,#969,#970,#971,#972,#973,#974,#975,#976,#977,#978,#979,#980,#981,#982,#951));
#984=IFCARBITRARYCLOSEDPROFILEDEF(.AREA.,'Graderias_00',#983);
#985=IFCCARTESIANPOINT((-1.3122545750572552,0.78620050182929535,0.81515151515151363));
#986=IFCDIRECTION((0.97838797469754812,-0.20677758816474792,0.));
#987=IFCDIRECTION((-0.20677758816474792,-0.97838797469754812,-0.));
#988=IFCAXIS2PLACEMENT3D(#985,#986,#987);
#989=IFCEXTRUDEDAREASOLID(#984,#988,#130,1.500000000000018);
#990=IFCSTYLEDITEM(#989,(#135),$);
#991=IFCSHAPEREPRESENTATION(#15,'Body','SweptSolid',(#989));
#992=IFCAXIS2PLACEMENT3D(#10,$,$);
#993=IFCREPRESENTATIONMAP(#992,#991);
#994=IFCBUILDINGELEMENTPROXYTYPE('05luym9y92rOraYVm2HQ8_',#6,'Graderias_5:Graderias_00',$,$,$,(#993),'1699139',$,.NOTDEFINED.);
#995=IFCMAPPEDITEM(#993,#482);
#996=IFCSHAPEREPRESENTATION(#15,'Body','MappedRepresentation',(#995));
#997=IFCPRODUCTDEFINITIONSHAPE($,$,(#996));
#998=IFCCARTESIANPOINT((11.055784114081879,-2.3365867462617982,0.));
#999=IFCAXIS2PLACEMENT3D(#998,$,$);
#1000=IFCLOCALPLACEMENT(#24,#999);
#1001=IFCBUILDINGELEMENTPROXY('05luym9y92rOraYVm2HQ8u',#6,'Graderias_5:Graderias_00:1699141',$,$,#1000,#997,'1699141',$);
#1002=IFCPROPERTYSET('2JqYJFCVfdQvwuyS84O9D$',#6,'Pset_BuildingElementProxyCommon',$,(#694));
#1003=IFCPROPERTYSET('305H8khwRllemQQkNjdsRS',#6,'Pset_QuantityTakeOff',$,(#694));
#1004=IFCRELDEFINESBYPROPERTIES('2rkX5p4cC2qGOemGqzcvxx',#6,$,$,(#1001),#1002);
#1005=IFCRELDEFINESBYPROPERTIES('2EYwLUYTeiJnCbNM2ECFG3',#6,$,$,(#1001),#1003);
#1006=IFCCARTESIANPOINT((1.1363636363633505,0.46454545454545598));
#1007=IFCCARTESIANPOINT((1.9363636363633503,0.46454545454545598));
#1008=IFCCARTESIANPOINT((1.9363636363633507,1.064545454545456));
#1009=IFCCARTESIANPOINT((1.6363636363639742,1.0645454545454538));
#1010=IFCCARTESIANPOINT((1.6363636363639749,0.73454545454545528));
#1011=IFCCARTESIANPOINT((0.83636363636397404,0.73454545454545528));
#1012=IFCCARTESIANPOINT((0.83636363636397404,0.38454545454545525));
#1013=IFCCARTESIANPOINT((0.036363636363973662,0.38454545454545525));
#1014=IFCCARTESIANPOINT((0.036363636363974078,0.034545454545455198));
#1015=IFCCARTESIANPOINT((-0.76363636363602583,0.034545454545455198));
#1016=IFCCARTESIANPOINT((-0.76363636363602627,-0.31545454545454471));
#1017=IFCCARTESIANPOINT((-1.5636363636360249,-0.31545454545454471));
#1018=IFCCARTESIANPOINT((-1.5636363636360249,-0.66545454545454485));
#1019=IFCCARTESIANPOINT((-1.8636363636366124,-0.66545454545454485));
#1020=IFCCARTESIANPOINT((-1.8636363636366124,-0.93545454545454632));
#1021=IFCCARTESIANPOINT((-1.2636363636366559,-0.93545454545454632));
#1022=IFCCARTESIANPOINT((-1.2636363636366559,-0.61545454545454481));
#1023=IFCCARTESIANPOINT((-0.46363636363665256,-0.61545454545454481));
#1024=IFCCARTESIANPOINT((-0.46363636363665317,-0.25545454545455226));
#1025=IFCCARTESIANPOINT((0.33636363636334909,-0.25545454545455226));
#1026=IFCCARTESIANPOINT((0.33636363636334893,0.10454545454545607));
#1027=IFCCARTESIANPOINT((1.1363636363633507,0.10454545454545607));
#1028=IFCPOLYLINE((#1006,#1007,#1008,#1009,#1010,#1011,#1012,#1013,#1014,#1015,#1016,#1017,#1018,#1019,#1020,#1021,#1022,#1023,#1024,#1025,#1026,#1027,#1006));
#1029=IFCARBITRARYCLOSEDPROFILEDEF(.AREA.,'Graderias_00',#1028);
#1030=IFCCARTESIANPOINT((0.21046807716632357,0.7369375795013976,0.82454545454545369));
#1031=IFCDIRECTION((0.97838797469754801,-0.20677758816474812,0.));
#1032=IFCDIRECTION((-0.20677758816474812,-0.97838797469754801,-0.));
#1033=IFCAXIS2PLACEMENT3D(#1030,#1031,#1032);
#1034=IFCEXTRUDEDAREASOLID(#1029,#1033,#130,4.3000000000044869);
#1035=IFCSTYLEDITEM(#1034,(#135),$);
#1036=IFCSHAPEREPRESENTATION(#15,'Body','SweptSolid',(#1034));
#1037=IFCAXIS2PLACEMENT3D(#10,$,$);
#1038=IFCREPRESENTATIONMAP(#1037,#1036);
#1039=IFCBUILDINGELEMENTPROXYTYPE('05luym9y92rOraYVm2HQ8d',#6,'Graderias_6:Graderias_00',$,$,$,(#1038),'1699162',$,.NOTDEFINED.);
#1040=IFCMAPPEDITEM(#1038,#482);
#1041=IFCSHAPEREPRESENTATION(#15,'Body','MappedRepresentation',(#1040));
#1042=IFCPRODUCTDEFINITIONSHAPE($,$,(#1041));
#1043=IFCCARTESIANPOINT((11.055784114081879,-2.3365867462617982,0.));
#1044=IFCAXIS2PLACEMENT3D(#1043,$,$);
#1045=IFCLOCALPLACEMENT(#24,#1044);
#1046=IFCBUILDINGELEMENTPROXY('05luym9y92rOraYVm2HQ8X',#6,'Graderias_6:Graderias_00:1699164',$,$,#1045,#1042,'1699164',$);
#1047=IFCPROPERTYSET('3aI2$T_DMV_GSyPVqpuJn8',#6,'Pset_BuildingElementProxyCommon',$,(#694));
#1048=IFCPROPERTYSET('3JGCIRalL433CfZn301biq',#6,'Pset_QuantityTakeOff',$,(#694));
#1049=IFCRELDEFINESBYPROPERTIES('1884OO7WJ6XASBeFPhKDlG',#6,$,$,(#1046),#1047);
#1050=IFCRELDEFINESBYPROPERTIES('34YvUCGSVwysweLE1Ng_Ky',#6,$,$,(#1046),#1048);
#1051=IFCPROPERTYSINGLEVALUE('AboveGround',$,IFCLOGICAL(.U.),$);
#1052=IFCPROPERTYSET('16L50AfyZF4hYq5TGET4H4',#6,'Pset_BuildingStoreyCommon',$,(#1051));
#1053=IFCRELDEFINESBYPROPERTIES('2VdfSfkgzGoZi_3SgzE8$0',#6,$,$,(#25),#1052);
#1054=IFCRELCONTAINEDINSPATIALSTRUCTURE('2JF4e6axWHqu3u0C5FZlmi',#6,$,$,(#143,#366,#448,#488,#543,#566,#693,#738,#765,#786,#813,#846,#901,#946,#1001,#1046),#25);
#1055=IFCPROPERTYSET('1n34enW33Z_3Qq2Pm1kjQZ',#6,'Pset_BuildingStoreyCommon',$,(#1051));
#1056=IFCRELDEFINESBYPROPERTIES('36oM8gyLQ5_Z6XoGK5uP1E',#6,$,$,(#29),#1055);
#1057=IFCRELCONTAINEDINSPATIALSTRUCTURE('1ZGO8hrFCHqw0v0066FpFv',#6,$,$,(#512,#598,#629),#29);
#1058=IFCRELAGGREGATES('29UPHVi6BJ2S84hWlGCZvN',#6,$,$,#18,(#117));
#1059=IFCRELAGGREGATES('2DJXWNP2M1mYycA_WDM1Rs',#6,$,$,#117,(#22));
#1060=IFCRELAGGREGATES('1yhDISh1T5aQqAoygxGIhP',#6,$,$,#22,(#25,#29));
#1061=IFCPROPERTYSINGLEVALUE('NumberOfStoreys',$,IFCINTEGER(2),$);
#1062=IFCPROPERTYSINGLEVALUE('IsLandmarked',$,IFCLOGICAL(.U.),$);
#1063=IFCPROPERTYSET('0rJ5h7mOpxTioyFStrvJwJ',#6,'Pset_BuildingCommon',$,(#1061,#1062));
#1064=IFCRELDEFINESBYPROPERTIES('2xqdzEw2lWW8n6B6K3GNDe',#6,$,$,(#22),#1063);
#1065=IFCRELASSOCIATESMATERIAL('0s5gdi8OcaATc2eB16AXh_',#6,$,$,(#143),#152);
#1066=IFCRELASSOCIATESMATERIAL('2Q9mbpjOUBi$0PRdB79c11',#6,$,$,(#366),#416);
#1067=IFCRELASSOCIATESMATERIAL('0hbXQVBKg5FwsLQisEksh5',#6,$,$,(#448),#457);
#1068=IFCRELASSOCIATESMATERIAL('1IwsgCf_pZpafYFpwlYDTg',#6,$,$,(#512),#513);
#1069=IFCRELASSOCIATESMATERIAL('1U6_G8joL18Gv$Cbik2NFf',#6,$,$,(#566),#569);
#1070=IFCRELASSOCIATESMATERIAL('1YjVEMvm$tpFuwIv09FHnV',#6,$,$,(#598),#601);
#1071=IFCRELASSOCIATESMATERIAL('0wxYWjsVWigz$K89AMsMcS',#6,$,$,(#629),#632);
#1072=IFCRELASSOCIATESMATERIAL('0O3iuM4vwI2$M7T1$5iNTw',#6,$,$,(#786),#789);
#1073=IFCRELASSOCIATESMATERIAL('1ULCnuBcgW58wc3Egm26ov',#6,$,$,(#813),#817);
#1074=IFCRELASSOCIATESMATERIAL('0ofr7mKekbAup$FtsJiG43',#6,$,$,(#481,#488,#537,#543,#687,#693,#732,#738,#894,#901,#939,#946,#994,#1001,#1039,#1046),#145);
#1075=IFCRELASSOCIATESMATERIAL('2Hb0ITdheFFxjuBkkuk9L5',#6,$,$,(#144),#151);
#1076=IFCRELASSOCIATESMATERIAL('3fJizwCNgggAgdhI_yGfu8',#6,$,$,(#449),#456);
#1077=IFCRELASSOCIATESMATERIAL('1G3b4ZiFbf$NQWgBFEiliH',#6,$,$,(#570),#568);
#1078=IFCRELASSOCIATESMATERIAL('3jh10soVnHR_$wOVkVWTq_',#6,$,$,(#602),#600);
#1079=IFCRELASSOCIATESMATERIAL('2VepJreLtWuLzeX50hqwFF',#6,$,$,(#633),#631);
#1080=IFCRELASSOCIATESMATERIAL('0Y2mAOEC$PtsnGst19mx0K',#6,$,$,(#754,#765,#839,#846),#755);
#1081=IFCRELASSOCIATESMATERIAL('03kqdGDEUbsuziD14Q3Nwj',#6,$,$,(#790),#788);
#1082=IFCRELASSOCIATESMATERIAL('01GGi5GpDzEQwjsyjmypxC',#6,$,$,(#814),#816);
#1083=IFCRELDEFINESBYTYPE('02$wTXZJ5UUSpyPMcP9MIt',#6,$,$,(#143,#512),#144);
#1084=IFCRELDEFINESBYTYPE('2Kmo6z2zbqim3v1mic_KvQ',#6,$,$,(#366),#399);
#1085=IFCRELDEFINESBYTYPE('3SQP3CSeKV15GF4BmftV4L',#6,$,$,(#448),#449);
#1086=IFCRELDEFINESBYTYPE('3YlU_Irc4p95OeaRbQNZ_r',#6,$,$,(#488),#481);
#1087=IFCRELDEFINESBYTYPE('0sg2sopLC8kqMn6qcUnYHJ',#6,$,$,(#543),#537);
#1088=IFCRELDEFINESBYTYPE('0MSq_ijuC5q4PUKv4QkOsA',#6,$,$,(#566),#570);
#1089=IFCRELDEFINESBYTYPE('3biq6_tkIJnD0zwolWo$c$',#6,$,$,(#598),#602);
#1090=IFCRELDEFINESBYTYPE('2Zf61NwAEGIj_2MyqiCRfq',#6,$,$,(#629),#633);
#1091=IFCRELDEFINESBYTYPE('35htebpPc4WUmKsl9Rzzf9',#6,$,$,(#693),#687);
#1092=IFCRELDEFINESBYTYPE('1ciJWE2xBP2Mk09DfwQen7',#6,$,$,(#738),#732);
#1093=IFCRELDEFINESBYTYPE('3LX9aN2UvUUlXIZtDiBFXt',#6,$,$,(#765),#754);
#1094=IFCRELDEFINESBYTYPE('0qdqPSX54o6spdZ9Wu5p6b',#6,$,$,(#786),#790);
#1095=IFCRELDEFINESBYTYPE('3k71sRebUlk0wvlyQHoAb8',#6,$,$,(#813),#814);
#1096=IFCRELDEFINESBYTYPE('30ZlORYjaH0XsBl7EeCXp4',#6,$,$,(#846),#839);
#1097=IFCRELDEFINESBYTYPE('38OwkO0u7pArlO6E_QNs1r',#6,$,$,(#901),#894);
#1098=IFCRELDEFINESBYTYPE('02R947F_OsUEF1NJuW9h92',#6,$,$,(#946),#939);
#1099=IFCRELDEFINESBYTYPE('1g$$5jthiPGfeSFNzqbORi',#6,$,$,(#1001),#994);
#1100=IFCRELDEFINESBYTYPE('3skrIME2AknUnRHchaCoc5',#6,$,$,(#1046),#1039);
#1101=IFCRELCONNECTSPATHELEMENTS('3_jOmXawIrD28g52GhdGNv',#6,'08Se$HfNPD1uA3FzD3EFpj|08Se$HfNPD1uA3FzD3EFxB','Structural',$,#566,#629,(),(),.ATEND.,.ATSTART.);
#1102=IFCRELCONNECTSPATHELEMENTS('3MlNf3ff3Ms_NH_wnH3_M3',#6,'08Se$HfNPD1uA3FzD3EFxB|05luym9y92rOraYVm2HQcw','Structural',$,#629,#786,(),(),.ATEND.,.ATPATH.);
#1103=IFCPRESENTATIONLAYERASSIGNMENT('L-SITE-____-OTLN',$,(#113,#751,#761,#836,#841),$);
#1104=IFCPRESENTATIONLAYERASSIGNMENT('A-FLOR-____-OTLN',$,(#137,#446,#510),$);
#1105=IFCPRESENTATIONLAYERASSIGNMENT('C-TOPO-____-OTLN',$,(#364),$);
#1106=IFCPRESENTATIONLAYERASSIGNMENT('A-GENM-____-OTLN',$,(#377,#393,#478,#484,#534,#539,#684,#689,#729,#734,#891,#896,#936,#941,#991,#996,#1036,#1041),$);
#1107=IFCPRESENTATIONLAYERASSIGNMENT('A-WALL-____-OTLN',$,(#556,#565,#589,#597,#620,#628,#777,#785),$);
#1108=IFCPRESENTATIONLAYERASSIGNMENT('S-FNDN-____-OTLN',$,(#811),$);
#1109=IFCUNITASSIGNMENT((#7,#8,#9,#141,#170));
ENDSEC;

END-ISO-10303-21;